<?xml version="1.0" encoding="UTF-8" standalone="no"?>
<svg
   xmlns:dc="http://purl.org/dc/elements/1.1/"
   xmlns:cc="http://creativecommons.org/ns#"
   xmlns:rdf="http://www.w3.org/1999/02/22-rdf-syntax-ns#"
   xmlns:svg="http://www.w3.org/2000/svg"
   xmlns="http://www.w3.org/2000/svg"
   width="189.0824mm"
   height="189.25912mm"
   viewBox="0 0 189.0824 189.25912"
   version="1.1"
   id="svg8">
  <defs
     id="defs2" />
  <metadata
     id="metadata5">
    <rdf:RDF>
      <cc:Work
         rdf:about="">
        <dc:format>image/svg+xml</dc:format>
        <dc:type
           rdf:resource="http://purl.org/dc/dcmitype/StillImage" />
        <dc:title></dc:title>
      </cc:Work>
    </rdf:RDF>
  </metadata>
  <g
     id="layer2"
     transform="translate(-23.826017,-19.52209)"
     style="display:none">
    <rect
       style="fill:#1a1a1a;fill-opacity:0.967078;fill-rule:evenodd;stroke-width:0.246602"
       id="rect850"
       width="205.73232"
       height="222.25"
       x="15.005781"
       y="0.37797615" />
  </g>
  <g
     id="layer1"
     transform="translate(-8.1575352,-31.697239)">
    <path
       style="fill:#000000;stroke-width:0.212149"
       d="m 103.83669,220.87767 -5.728025,0.0787 -2.33364,-0.18849 -2.33364,-0.18849 -2.75794,-0.34054 -2.75793,-0.34053 -3.80987,-0.74544 -3.80986,-0.74544 -3.72142,-1.0659 -3.72142,-1.0659 -2.86401,-1.06336 -2.86401,-1.06336 -2.65186,-1.169 -2.65186,-1.169 -1.6972,-0.84893 -1.69719,-0.84894 -2.43971,-1.38049 -2.43971,-1.38049 -2.71081,-1.77149 -2.71081,-1.77148 -2.16861,-1.63214 -2.16862,-1.63214 -2.01541,-1.70332 -2.01542,-1.70333 -2.14551,-1.98505 -2.14552,-1.98504 -2.52176,-2.76596 -2.52176,-2.76595 -1.96876,-2.47122 -1.96877,-2.47122 -2.08285,-3.07616 -2.08285,-3.07615 -1.44367,-2.43972 -1.44367,-2.43971 -1.76857,-3.59136 -1.76856,-3.59135 -1.25707,-3.19741 -1.25708,-3.19741 -0.96789,-3.02835 -0.9679,-3.02836 -0.7525,-3.05238 -0.7524998,-3.05237 -0.61529,-3.67812 -0.61529,-3.67811 -0.2812,-2.54579 -0.28121,-2.54579 v -7.10698 -7.10699 l 0.28121,-2.54579 0.2812,-2.54578 0.61529,-3.67812 0.61529,-3.67811 0.7624798,-3.11065 0.76248,-3.11065 1.34448,-4.03083 1.34448,-4.030833 1.20152,-2.843997 1.20151,-2.844 1.34694,-2.687969 1.34695,-2.687969 1.20767,-2.105391 1.20768,-2.105393 1.78905,-2.726333 1.78906,-2.726332 1.94568,-2.57739 1.94568,-2.577388 1.37086,-1.591117 1.37085,-1.591117 1.91847,-2.015414 1.91847,-2.015414 2.44574,-2.305583 2.44574,-2.305583 2.71088,-2.178517 2.71089,-2.178518 2.59283,-1.802385 2.59284,-1.802383 3.07616,-1.840778 3.07616,-1.840778 3.18223,-1.562474 3.18224,-1.562474 2.33363,-0.991909 2.33364,-0.991908 4.03083,-1.347529 4.03083,-1.34753 3.44245,-0.848445 3.44246,-0.848442 3.24023,-0.543188 3.24024,-0.543189 2.97008,-0.314148 2.97009,-0.314147 4.242985,-0.134043 4.24297,-0.134043 3.73878,0.236334 3.73877,0.236333 2.51962,0.323217 2.51962,0.323218 3.07616,0.553148 3.07616,0.553151 3.18223,0.806397 3.18223,0.806397 2.97009,0.993219 2.97008,0.99322 2.65186,1.065984 2.65186,1.065985 2.97559,1.419636 2.97558,1.419637 3.02557,1.735919 3.02557,1.735918 2.27265,1.519476 2.27266,1.519479 2.12149,1.587225 2.12148,1.587224 2.438,2.037323 2.438,2.037321 3.08486,3.076158 3.08486,3.076159 2.24162,2.651861 2.24162,2.651861 1.95943,2.651861 1.95944,2.651861 1.58638,2.503552 1.58639,2.50355 1.27349,2.269799 1.2735,2.269798 1.35807,2.802572 1.35808,2.802571 1.36702,3.455821 1.36703,3.45582 0.86146,2.757936 0.86146,2.75794 0.6326,2.54579 0.6326,2.54578 0.54321,2.73708 0.54321,2.73708 0.422,3.41524 0.422,3.41524 0.18729,4.18994 0.18729,4.18994 -0.18569,4.18994 -0.1857,4.18994 -0.44148,3.50045 -0.44148,3.50046 -0.42389,2.22756 -0.42388,2.22757 -0.64264,2.65186 -0.64264,2.65186 -0.95042,3.07616 -0.95043,3.07616 -1.37745,3.47595 -1.37745,3.47595 -1.45215,2.99459 -1.45214,2.99459 -1.52544,2.65186 -1.52544,2.65186 -1.38448,2.12149 -1.38447,2.12149 -2.05837,2.76591 -2.05838,2.76592 -1.98848,2.32565 -1.98849,2.32566 -2.87309,2.87808 -2.8731,2.87807 -2.35224,2.01619 -2.35223,2.01618 -2.42112,1.81149 -2.42111,1.8115 -1.97682,1.32481 -1.97682,1.3248 -2.47831,1.48338 -2.47831,1.48337 -4.03083,1.97745 -4.03082,1.97745 -2.54579,1.00014 -2.54579,1.00014 -3.15974,1.03561 -3.15974,1.03561 -3.41687,0.8437 -3.41688,0.84371 -3.10791,0.52616 -3.10792,0.52616 -3.0444,0.33696 -3.0444,0.33697 z m -0.10608,-1.69989 6.89484,-0.0695 2.65186,-0.33571 2.65186,-0.3357 3.07616,-0.53553 3.07616,-0.53552 3.38076,-0.86508 3.38075,-0.86507 2.45334,-0.79793 2.45334,-0.79794 3.07616,-1.21497 3.07616,-1.21498 3.60653,-1.76156 3.60653,-1.76156 3.28831,-1.98542 3.2883,-1.98542 2.46013,-1.75506 2.46013,-1.75505 1.92774,-1.53916 1.92774,-1.53916 2.46583,-2.19966 2.46584,-2.19965 2.24122,-2.35319 2.24123,-2.35319 1.95421,-2.33363 1.95421,-2.33364 1.50314,-2.03074 1.50315,-2.03073 1.78433,-2.74262 1.78434,-2.74261 1.10336,-1.94526 1.10337,-1.94527 1.88234,-3.88883 1.88234,-3.88883 1.28378,-3.41485 1.28379,-3.41484 0.94432,-3.26785 0.94432,-3.26784 0.64346,-2.97008 0.64345,-2.97009 0.426,-2.86401 0.42601,-2.86401 0.2715,-2.65186 0.2715,-2.65186 -0.008,-6.04624 -0.008,-6.04624 -0.36337,-3.25455 -0.36336,-3.25454 -0.53076,-3.0838 -0.53077,-3.08379 -0.53248,-2.25369 -0.53248,-2.25369 -0.86124,-2.93666 -0.86123,-2.93667 -0.92683,-2.520195 -0.92683,-2.520202 -0.88197,-2.074425 -0.88198,-2.074426 -1.56491,-3.126605 -1.56492,-3.126606 -1.411,-2.389265 -1.411,-2.389265 -1.87191,-2.757936 -1.87193,-2.757935 -1.9738,-2.479096 -1.9738,-2.479097 -2.28521,-2.552081 -2.2852,-2.552081 -2.48208,-2.319122 -2.48208,-2.319125 -1.66848,-1.411509 -1.66847,-1.411507 -2.06112,-1.560898 -2.06111,-1.5609 -3.05918,-2.015041 -3.05917,-2.015041 -2.75793,-1.54171 -2.75794,-1.541709 -2.12149,-1.002098 -2.12149,-1.0021 -2.25584,-0.961946 -2.25585,-0.961947 -3.47217,-1.195493 -3.47218,-1.195491 -3.60653,-0.920077 -3.60653,-0.920074 -3.07616,-0.545335 -3.07616,-0.545335 -2.86401,-0.339714 -2.86401,-0.339714 -5.51587,-0.117864 -5.515875,-0.117864 -3.28831,0.249857 -3.28831,0.249856 -3.07615,0.427208 -3.07616,0.427209 -2.9451,0.622364 -2.94509,0.622366 -2.67685,0.739127 -2.67685,0.739129 -2.43972,0.823638 -2.43971,0.823636 -2.86401,1.171323 -2.86401,1.171323 -2.43971,1.18238 -2.43971,1.18238 -2.54579,1.418535 -2.54579,1.418534 -2.74099,1.789622 -2.74099,1.789622 -2.13843,1.606194 -2.13844,1.606192 -1.69719,1.41949 -1.69719,1.419488 -2.43971,2.232799 -2.43971,2.232801 -2.3985,2.65138 -2.3985,2.651381 -2.01916,2.521994 -2.01917,2.521992 -1.93863,2.86401 -1.93863,2.86401 -1.45047,2.439712 -1.45047,2.439712 -1.34829,2.651861 -1.34829,2.651861 -1.31533,3.076158 -1.31533,3.076159 -1.23622,3.712606 -1.23622,3.71261 -0.86097,3.50046 -0.86097,3.50045 -0.51742,3.07616 -0.51742,3.07616 -0.32394,3.28831 -0.3239298,3.2883 -0.13669,3.39439 -0.1367,3.39438 0.2445,4.1369 0.2445,4.1369 0.4211298,3.18224 0.42114,3.18223 0.53344,2.65186 0.53343,2.65186 0.63919,2.54579 0.63918,2.54579 1.23698,3.7126 1.23699,3.71261 1.29533,3.02691 1.29533,3.02692 1.35783,2.7011 1.35783,2.70111 1.98313,3.28941 1.98313,3.28942 1.75751,2.45902 1.7575,2.45902 1.5308,1.91567 1.5308,1.91567 2.43972,2.71198 2.43971,2.71198 2.75793,2.54118 2.75794,2.54118 2.75794,2.21682 2.75793,2.21683 3.60653,2.39335 3.60653,2.39336 2.94571,1.64985 2.94571,1.64984 2.88839,1.32028 2.88838,1.32029 2.43971,0.96071 2.43972,0.96072 3.07616,0.98976 3.07615,0.98977 2.97009,0.73565 2.97008,0.73565 3.60653,0.6146 3.60654,0.61461 2.43971,0.22817 2.43971,0.22816 0.74252,0.0844 0.74252,0.0844 z m 42.748,-17.40061 -1.48504,0.0866 -1.06074,-0.21036 -1.06075,-0.21035 -2.01541,-0.39658 -2.01542,-0.39658 -0.95751,-0.10994 -0.9575,-0.10995 -2.3064,-0.95313 -2.3064,-0.95312 -1.2385,-0.76445 -1.2385,-0.76445 -1.16275,-0.40004 -1.16275,-0.40005 -0.69931,-0.63546 -0.69931,-0.63546 -1.69719,-1.52321 -1.69719,-1.52321 -0.47995,-0.18552 -0.47994,-0.18551 -0.25135,-0.55165 -0.25134,-0.55165 -0.80688,-0.41163 -0.80688,-0.41164 -0.49983,-0.79179 -0.49983,-0.79178 -1.54829,-0.84802 -1.5483,-0.84801 -1.0993,-1.37896 -1.0993,-1.37897 -0.25982,-0.48758 -0.25981,-0.48758 -0.12376,-3.3311 -0.12376,-3.3311 0.561,-1.22614 0.56101,-1.22615 v -0.20525 -0.20525 l 0.77032,-0.85266 0.77033,-0.85265 1.88314,-0.95122 1.88314,-0.95122 h 0.71674 0.71674 l 1.35011,0.89633 1.3501,0.89634 1.0152,1.03483 1.01519,1.03483 0.52289,1.03187 0.52288,1.03186 v 2.965 2.965 l -0.55544,1.49852 -0.55545,1.49851 -1.14175,1.27958 -1.14174,1.27957 v 0.27436 0.27435 l 1.53808,1.47426 1.53808,1.47425 1.90934,1.5002 1.90934,1.5002 1.90934,1.11896 1.90934,1.11895 1.06074,0.7045 1.06075,0.70449 1.2435,0.54945 1.24349,0.54945 1.83266,0.55053 1.83267,0.55054 1.59111,0.20044 1.59112,0.20044 2.43971,-0.14507 2.43971,-0.14507 1.48505,-0.0496 1.48504,-0.0495 1.0253,-0.45807 1.02529,-0.45806 h 0.93708 0.93708 v 0.28534 0.28534 l -0.37126,0.32096 -0.37126,0.32096 -1.29092,0.74548 -1.29091,0.74549 -1.78524,0.23862 -1.78525,0.23862 -0.95467,0.11155 -0.95467,0.11154 z m -26.4922,-16.64374 h 0.52422 l 0.5143,-0.55494 0.51429,-0.55493 0.68844,-1.72567 0.68845,-1.72567 -0.0162,-1.48504 -0.0162,-1.48504 -0.21916,-1.18616 -0.21915,-1.18616 -0.37016,-0.72318 -0.37016,-0.72318 -0.64381,-0.81904 -0.6438,-0.81905 -0.93437,0.10532 -0.93437,0.10532 -0.62014,0.59413 -0.62014,0.59413 -0.66031,1.71071 -0.6603,1.71071 0.0919,1.59112 0.0919,1.59112 1.01324,1.96098 1.01324,1.96099 0.63197,0.53176 0.63196,0.53177 h 0.52422 z m -32.909495,3.31715 -4.24297,0.0288 -0.21215,-0.0633 -0.21215,-0.0633 -0.58341,-0.12867 -0.58341,-0.12867 0.003,-0.4733 0.003,-0.47329 0.20112,-0.31822 0.20112,-0.31823 1.33355,-0.21215 1.33356,-0.21214 0.25467,-2.97009 0.25467,-2.97008 0.15877,-2.01542 0.15877,-2.01541 6.4e-4,-0.79376 6.3e-4,-0.79377 -0.43317,-0.5852 -0.43317,-0.58521 -1.42437,-0.70213 -1.42436,-0.70212 -0.12405,-0.32325 -0.12404,-0.32324 0.43174,-0.43174 0.43173,-0.43173 1.95016,-0.21773 1.95017,-0.21773 2.50356,0.23019 2.50355,0.23019 0.81901,0.34122 0.819,0.34123 0.81305,0.7852 0.81304,0.7852 0.30074,0.57287 0.30074,0.57287 v 1.26438 1.26438 l -0.8486,1.07355 -0.8486,1.07356 v 0.29849 0.29848 l 0.34085,0.28288 0.34085,0.28288 0.45471,0.22339 0.45471,0.22338 0.37093,0.73957 0.37093,0.73957 4.3e-4,1.67395 4.2e-4,1.67396 -0.4698,0.94067 -0.46979,0.94068 -1.59866,0.77975 -1.59863,0.77975 z m 2.00281,-2.15387 0.73539,-0.13796 0.78538,-0.40067 0.78537,-0.40067 0.44435,-0.5649 0.44435,-0.5649 v -1.33496 -1.33496 l -0.54131,-0.4258 -0.54132,-0.42579 -1.13015,-0.14121 -1.13015,-0.1412 -0.46799,0.25046 -0.46798,0.25045 -0.30026,0.71863 -0.30026,0.71863 v 1.53122 1.53122 l 0.47459,0.50518 0.47459,0.50519 z m -0.10212,-7.3156 h 0.45596 l 0.9962,-0.63178 0.99621,-0.63177 v -1.46111 -1.4611 l -0.44303,-0.56322 -0.44303,-0.56322 -0.62832,-0.32492 -0.62832,-0.32491 -0.40316,0.12796 -0.40316,0.12795 -0.46124,0.7463 -0.46123,0.7463 0.0972,1.67986 0.0973,1.67986 0.38633,0.4269 0.38634,0.4269 z m 13.904415,9.47117 -4.349065,0.0305 -0.21215,-0.065 -0.21214,-0.065 -0.58341,-0.12867 -0.58341,-0.12867 0.003,-0.4733 0.003,-0.47329 0.20112,-0.31822 0.20112,-0.31823 1.33355,-0.21215 1.333565,-0.21214 0.26185,-2.97009 0.26185,-2.97008 0.14802,-2.01542 0.14801,-2.01541 0.004,-0.79376 0.004,-0.79377 -0.43317,-0.5852 -0.433175,-0.58521 -1.42437,-0.70213 -1.42436,-0.70212 -0.12404,-0.32325 -0.12405,-0.32324 0.43174,-0.43174 0.43173,-0.43173 1.95017,-0.21773 1.950165,-0.21773 2.52541,0.2322 2.5254,0.23219 0.90324,0.40377 0.90322,0.40376 0.6142,0.61458 0.6142,0.61458 0.39272,0.63644 0.39271,0.63645 8.4e-4,1.30688 8.5e-4,1.30688 -0.84859,1.07355 -0.8486,1.07356 v 0.29849 0.29848 l 0.34085,0.28288 0.34085,0.28288 0.4321,0.22044 0.4321,0.22043 0.39387,0.73921 0.39388,0.73921 v 1.67726 1.67727 l -0.46133,0.92372 -0.46134,0.92372 -1.50105,0.79671 -1.50114,0.7967 z m 1.89673,-2.15557 0.73539,-0.13796 0.78537,-0.40067 0.78538,-0.40067 0.44435,-0.5649 0.44435,-0.5649 v -1.33496 -1.33496 l -0.54131,-0.4258 -0.54132,-0.42579 -1.13015,-0.14121 -1.13016,-0.1412 -0.46798,0.25046 -0.46798,0.25045 -0.30026,0.71863 -0.30027,0.71863 v 1.53122 1.53122 l 0.4746,0.50518 0.47459,0.50519 z m -0.10212,-7.3156 h 0.45595 l 0.99621,-0.63178 0.9962,-0.63177 v -1.46111 -1.4611 l -0.44303,-0.56322 -0.44303,-0.56322 -0.62831,-0.32492 -0.62832,-0.32491 -0.40316,0.12796 -0.40316,0.12795 -0.46124,0.7463 -0.46124,0.7463 0.0973,1.67986 0.0972,1.67986 0.38633,0.4269 0.38634,0.4269 z m 54.53092,-8.2135 -0.63645,0.0924 -0.84157,-0.18869 -0.84157,-0.18869 -0.46283,-0.4348 -0.46283,-0.43481 -0.10291,-0.53832 -0.10291,-0.53831 0.38386,-0.38386 0.38386,-0.38385 0.44004,0.11507 0.44004,0.11507 v 0.6918 0.69181 l 0.30352,0.25189 0.30351,0.2519 0.63962,0.0182 0.63962,0.0182 0.52816,-0.34606 0.52816,-0.34607 0.0784,-0.6936 0.0784,-0.6936 -1.47023,-1.38749 -1.47024,-1.38748 0.15296,-0.6964 0.15295,-0.69639 0.66924,-0.40808 0.66924,-0.40807 0.89417,-8.5e-4 0.89416,-8.5e-4 0.21886,0.40893 0.21885,0.40893 -0.12172,0.31719 -0.12172,0.31719 -0.28631,0.10987 -0.2863,0.10986 -0.25364,-0.30561 -0.25364,-0.30561 h -0.58777 -0.58777 l -0.12147,0.31655 -0.12148,0.31655 0.58839,0.30426 0.58838,0.30427 1.12832,1.05932 1.12832,1.05932 -0.14151,0.81261 -0.1415,0.81262 -0.21877,0.55806 -0.21877,0.55806 -0.78032,0.3275 -0.78032,0.32751 -0.63644,0.0924 z m -103.581705,-0.16703 -1.32593,0.14838 v -0.34571 -0.34571 l 0.31822,-0.12211 0.31823,-0.12212 v -0.52162 -0.52162 l -0.19268,-0.36003 -0.19268,-0.36002 -0.14071,-1.05803 -0.1407,-1.05804 -0.0732,-0.4243 -0.0732,-0.42429 -0.0177,-0.37126 -0.0177,-0.37126 h -0.53038 -0.53037 v -0.30137 -0.30137 l 0.58341,-0.11489 0.58341,-0.1149 1.0077,-0.1382 1.00771,-0.1382 v 0.17524 0.17523 l -0.53913,0.43226 -0.53912,0.43227 0.24877,0.74252 0.24877,0.74252 0.23732,0.24095 0.23732,0.24095 1.32993,-0.16526 1.32993,-0.16525 0.2903,-0.24093 0.29029,-0.24092 -0.19425,-0.89551 -0.19425,-0.89552 -0.43446,-0.36533 -0.43445,-0.36533 0.13478,-0.21808 0.13478,-0.21808 h 1.36645 1.36644 v 0.29348 0.29349 l -0.44675,0.11682 -0.44675,0.11683 0.13603,1.33992 0.13603,1.33992 0.24882,1.35237 0.24883,1.35236 0.60834,0.21207 0.60835,0.21207 -0.17519,0.17476 -0.17518,0.17475 -1.2729,0.20146 -1.27289,0.20146 -0.0747,-0.0706 -0.0747,-0.0706 0.33576,-0.47937 0.33576,-0.47936 -0.13094,-0.86029 -0.13093,-0.86028 -0.18331,-0.23404 -0.1833,-0.23403 -1.11366,0.10388 -1.11367,0.10389 -0.47733,0.17793 -0.47734,0.17794 v 0.95992 0.95992 l 0.4243,0.4243 0.4243,0.4243 h 0.25458 0.25458 l -0.20154,0.19067 -0.20155,0.19067 z m 7.95558,-1.27955 -0.37126,0.15877 v -0.1651 -0.16511 l 0.35811,-0.3957 0.35811,-0.39571 -0.3703,-2.37893 -0.37031,-2.37894 -0.10391,-0.35781 -0.10391,-0.35783 -0.45068,-0.0665 -0.45069,-0.0665 -0.0873,-0.26519 -0.0873,-0.26518 h 0.54501 0.545 l 0.9509,-0.25433 0.9509,-0.25433 0.16276,0.16277 0.16276,0.16276 -0.49845,0.37598 -0.49845,0.37598 0.17077,0.72329 0.17077,0.72329 -0.0358,0.1454 -0.0358,0.14539 0.32361,0.91535 0.3236,0.91535 -0.063,0.73682 -0.063,0.73683 0.58341,0.28246 0.58341,0.28246 v 0.19653 0.19653 l -0.47733,0.0986 -0.47734,0.0986 -0.63645,0.0876 -0.63644,0.0876 z m 86.397645,-0.12991 -0.31822,-0.0177 -0.8486,-0.19374 -0.8486,-0.19374 -0.74252,-0.0779 -0.74252,-0.078 -0.27994,-0.0221 -0.27994,-0.0221 0.0678,-0.47733 0.0678,-0.47734 h 0.74217 0.74217 l 0.17434,-1.44551 0.17434,-1.44552 -0.59829,-0.75073 -0.59828,-0.75073 -0.24157,-0.42235 -0.24157,-0.42234 -0.66006,-0.40141 -0.66006,-0.40141 v -0.22193 -0.22192 l 0.31575,-0.12117 0.31576,-0.12117 1.11625,0.25243 1.11625,0.25242 0.38675,0.10676 0.38675,0.10677 -0.3764,0.41592 -0.3764,0.41592 0.51559,0.94383 0.51559,0.94384 h 0.14571 0.14572 l 0.67913,-0.85747 0.67912,-0.85747 -0.39611,-0.44701 -0.39611,-0.447 1.16681,0.13581 1.16682,0.13581 0.47734,0.002 0.47733,0.002 v 0.31822 0.31823 h -0.65014 -0.65014 l -0.56972,0.6695 -0.56971,0.6695 -0.37407,0.55035 -0.37407,0.55036 -0.31072,1.03042 -0.31073,1.03041 0.21493,0.40159 0.21492,0.40159 h 0.26355 0.26356 l 0.48381,0.33887 0.48381,0.33888 -0.38357,0.29082 -0.38357,0.29083 -0.31822,-0.0177 z m -82.662915,-0.48827 -0.45522,0.0921 -0.1114,-0.29031 -0.1114,-0.29031 0.5263,-0.2398 0.52631,-0.2398 -0.12721,-1.53683 -0.1272,-1.53683 -0.11058,-0.90108 -0.11059,-0.90108 -0.42418,-0.22702 -0.42418,-0.22701 0.0685,-0.35695 0.0685,-0.35695 1.58842,-0.24378 1.58842,-0.24378 0.19255,0.18176 0.19255,0.18175 -0.261,0.31448 -0.26099,0.31447 -0.46193,0.0658 -0.46193,0.0658 0.0352,1.98296 0.0352,1.98295 0.12795,0.5098 0.12795,0.50979 h 0.64635 0.64636 l 0.46338,-0.23807 0.46339,-0.23807 0.5812,-0.54202 0.5812,-0.54203 0.12299,0.123 0.12299,0.12299 -0.26418,0.88176 -0.26419,0.88177 -0.33393,0.1643 -0.33393,0.16429 -1.80326,0.25995 -1.80327,0.25996 z m 6.58599,-0.85438 -0.44584,0.0932 -0.13757,-0.13757 -0.13757,-0.13757 v -0.18204 -0.18204 l 0.53037,-0.20165 0.53038,-0.20165 -0.0151,-0.58866 -0.0151,-0.58866 -0.16186,-1.84681 -0.16186,-1.84682 -0.51255,-0.41873 -0.51255,-0.41872 0.21348,-0.21793 0.21348,-0.21793 1.77754,-0.14824 1.77754,-0.14825 -0.0943,0.28292 -0.0943,0.28292 -0.30559,0.15897 -0.3056,0.15896 -0.37126,0.11472 -0.37126,0.11472 0.003,1.96904 0.003,1.96903 0.12792,0.47734 0.12792,0.47733 h 0.79202 0.79202 l 0.90016,-0.65207 0.90016,-0.65207 0.10749,0.10749 0.10748,0.10748 -0.24414,0.73977 -0.24415,0.73976 -0.25875,0.21475 -0.25876,0.21475 -1.90492,0.23556 -1.90492,0.23557 -0.44584,0.0932 z m 68.756165,0.1009 h -0.24589 l -0.10324,-0.10325 -0.10324,-0.10324 -1.99207,-0.11102 -1.99207,-0.11101 -0.19155,-0.19155 -0.19156,-0.19156 0.14254,-0.23063 0.14254,-0.23064 h 0.39926 0.39926 l 0.0979,-0.15911 0.0979,-0.15911 0.38339,-2.26774 0.38338,-2.26775 -0.36274,-0.40082 -0.36273,-0.40082 v -0.27899 -0.27898 l 1.74314,0.14538 1.74315,0.14537 0.15499,0.25079 0.155,0.25079 -0.25399,0.16146 -0.25399,0.16146 -0.57936,0.003 -0.57937,0.003 -0.12917,0.58341 -0.12917,0.58341 -0.20326,0.67044 -0.20327,0.67044 -0.0429,1.22568 -0.0429,1.22567 0.74252,0.16401 0.74253,0.16401 1.00575,-0.48864 1.00576,-0.48864 0.10056,0.10057 0.10056,0.10056 -0.2312,0.44944 -0.23119,0.44944 -0.43477,0.47734 -0.43477,0.47733 h -0.24588 z m -61.102135,-0.94025 -1.79839,0.1273 v -0.31919 -0.31919 l 0.62327,-0.1369 0.62328,-0.13689 -0.008,-2.16051 -0.008,-2.16051 -0.19891,-0.37166 -0.1989,-0.37167 -0.75014,-0.31342 -0.75014,-0.31343 0.12325,-0.19943 0.12325,-0.19942 1.0058,-0.21327 1.0058,-0.21326 1.16682,0.10398 1.16682,0.10398 0.45938,0.43045 0.45939,0.43046 0.13044,0.5197 0.13043,0.51971 -0.36494,0.61779 -0.36494,0.6178 0.57068,0.4489 0.57067,0.44889 v 0.8332 0.8332 l -0.43276,0.43277 -0.43278,0.43277 -0.52677,0.20028 -0.52677,0.20028 -1.7984,0.12729 z m 1.34631,-0.90788 0.35575,-0.12571 0.37126,-0.31885 0.37126,-0.31886 v -0.7056 -0.7056 l -0.51359,-0.1289 -0.51359,-0.1289 -0.38804,0.0736 -0.38804,0.0737 -0.066,0.91548 -0.066,0.91549 0.24062,0.28993 0.24063,0.28994 z m -0.39154,-2.81915 h 0.12251 l 0.4715,-0.33025 0.47151,-0.33026 v -0.39491 -0.39492 l -0.13104,-0.34147 -0.13103,-0.34146 -0.4129,-0.22098 -0.4129,-0.22098 -0.30466,0.25285 -0.30466,0.25285 v 0.78018 0.78019 l 0.25457,0.25458 0.25458,0.25458 z m 52.316905,3.77686 -1.71462,-0.0643 -0.84859,-0.10608 -0.8486,-0.10607 v -0.30866 -0.30866 l 0.52481,-0.12389 0.5248,-0.12389 0.2546,-1.58286 0.2546,-1.58287 0.0162,-0.83189 0.0161,-0.83189 -0.339,-0.3746 -0.33901,-0.3746 0.15549,-0.25157 0.15548,-0.25158 1.57378,0.10099 1.57378,0.101 0.23975,0.23975 0.23976,0.23975 -0.13421,0.13421 -0.1342,0.1342 -0.69692,0.14254 -0.69692,0.14253 -0.37156,1.37095 -0.37156,1.37095 0.05,1.06075 0.05,1.06074 0.78983,0.0655 0.78982,0.0655 0.99319,-0.43934 0.99319,-0.43934 0.0892,0.0892 0.0892,0.0892 -0.58187,0.87927 -0.58188,0.87928 -1.71462,-0.0642 z m -11.57955,-0.2764 -0.16406,0.1014 -0.26571,-0.32016 -0.26571,-0.32016 -0.5263,-1.42773 -0.5263,-1.42773 -0.23493,-0.90164 -0.23494,-0.90163 h -0.13563 -0.13563 l -0.4909,1.11378 -0.49091,1.11378 -0.57418,1.37897 -0.57418,1.37897 h -0.28402 -0.28402 l -0.19256,-0.63645 -0.19255,-0.63644 -0.17011,-0.4243 -0.1701,-0.4243 -0.43801,-1.03468 -0.43801,-1.03467 v -0.29971 -0.2997 l -0.44823,-0.89319 -0.44824,-0.89318 -0.43655,-0.4765 -0.43656,-0.47649 0.11731,-0.11731 0.11731,-0.11731 1.51582,-0.066 1.51582,-0.066 0.11617,0.18797 0.11617,0.18797 -0.66535,0.23194 -0.66536,0.23195 0.14907,0.34598 0.14907,0.34597 0.65194,1.75023 0.65194,1.75023 0.11362,-0.0105 0.11362,-0.0105 0.91542,-1.94463 0.91543,-1.94463 -0.38402,-0.2808 -0.38402,-0.2808 0.31719,-0.20154 0.31719,-0.20155 0.28254,0.10385 0.28253,0.10384 h 1.0434 1.04339 v 0.31823 0.31822 h -0.43095 -0.43096 l -0.12339,0.32154 -0.12338,0.32154 0.56119,1.79995 0.5612,1.79995 h 0.10685 0.10685 l 0.84097,-1.73901 0.84096,-1.73901 v -0.26586 -0.26587 l -0.36949,-0.20678 -0.3695,-0.20677 0.16961,-0.16961 0.16961,-0.16961 1.41974,0.0619 1.41974,0.0619 0.21038,0.20669 0.21037,0.20669 -0.31645,0.20007 -0.31645,0.20006 -0.44984,0.003 -0.44985,0.003 -1.28929,2.53794 -1.2893,2.53793 -0.14121,0.75272 -0.14121,0.75271 -0.16406,0.1014 z m -35.694045,-0.24507 -1.21986,0.10834 v -0.20348 -0.20348 l 0.34872,-0.13382 0.34872,-0.13381 -0.1394,-2.60748 -0.13939,-2.60748 -0.12595,-0.3282 -0.12594,-0.32821 h -0.4016 -0.4016 v -0.28893 -0.28893 l 1.41209,-0.14467 1.4121,-0.14467 0.21356,0.21357 0.21357,0.21356 -0.57481,0.21855 -0.57481,0.21854 0.10663,0.69097 0.10664,0.69098 0.15461,1.06074 0.15461,1.06074 -0.0581,0.89969 -0.0582,0.89968 0.54932,0.20885 0.54931,0.20885 v 0.22405 0.22406 l -0.26518,0.0818 -0.26519,0.0818 z m 41.717175,0.0767 -1.38845,-0.0438 -0.0762,-0.0749 -0.0762,-0.0749 0.50906,-0.45551 0.50905,-0.45552 0.12609,-2.67695 0.12609,-2.67696 -0.43653,-0.11415 -0.43654,-0.11416 v -0.29858 -0.29859 l 1.32593,0.0811 1.32593,0.0811 0.26519,0.0849 0.26519,0.0849 v 0.21881 0.21881 h -0.41178 -0.41178 l -0.13198,0.21355 -0.13198,0.21355 -0.005,1.81454 -0.005,1.81454 -0.18218,0.6352 -0.18217,0.6352 0.51161,0.44483 0.5116,0.44484 -0.10566,0.17096 -0.10566,0.17096 -1.38844,-0.0438 z m -38.428865,-0.29938 -0.90164,0.0767 v -0.38791 -0.38792 h 0.30571 0.3057 l 0.14795,-0.2394 0.14796,-0.23939 -0.0101,-2.2192 -0.0101,-2.21921 -0.48316,-0.51429 -0.48316,-0.5143 0.19874,-0.18852 0.19873,-0.18852 1.69719,-0.0738 1.69719,-0.0739 v 0.30296 0.30296 l -0.61837,0.16538 -0.61836,0.16537 -0.17394,0.27418 -0.17395,0.27419 -0.003,1.94503 -0.003,1.94502 0.12877,0.33558 0.12878,0.33557 h 0.62428 0.62428 l 0.67895,-0.34381 0.67895,-0.3438 0.37256,-0.3267 0.37256,-0.3267 0.1225,0.1225 0.12251,0.1225 -0.41934,0.94797 -0.41933,0.94797 -1.66684,0.12337 -1.66685,0.12337 -0.90163,0.0767 z m 18.244805,-0.4668 -0.37126,0.29807 -2.06845,-0.0607 -2.06845,-0.0607 v -0.53787 -0.53787 l 0.47733,0.0387 0.47734,0.0387 0.28797,-0.0235 0.28798,-0.0235 -0.0976,-1.4965 -0.0976,-1.4965 -1.14507,-1.15237 -1.14507,-1.15236 -0.3638,-0.003 -0.3638,-0.003 -0.21214,-0.3964 -0.21215,-0.3964 0.13396,-0.13397 0.13397,-0.13397 1.29058,0.0149 1.29057,0.0149 0.41021,0.16064 0.41022,0.16064 -0.2511,0.15519 -0.25111,0.15519 0.006,0.35874 0.006,0.35874 0.61618,0.81409 0.61619,0.81409 0.54473,-0.86291 0.54473,-0.86291 v -0.29974 -0.29974 l -0.33167,-0.12728 -0.33167,-0.12727 0.10891,-0.17622 0.10891,-0.17622 1.62088,-0.0419 1.62088,-0.0418 -0.0885,0.2696 -0.0885,0.26961 -0.56231,0.0667 -0.56231,0.0667 -0.40133,0.56978 -0.40134,0.56977 -0.43429,0.85846 -0.43429,0.85847 -0.14713,0.78429 -0.14714,0.7843 0.12469,0.49676 0.12468,0.49677 0.85333,0.25567 0.85334,0.25566 v 0.17075 0.17076 l -0.37126,0.29806 z m -10.946705,0.11705 -1.62312,0.13721 v -0.3153 -0.3153 l 0.53037,-0.24166 0.53037,-0.24165 v -2.34026 -2.34026 l -0.42429,-0.3633 -0.4243,-0.3633 v -0.26703 -0.26703 l 0.48388,-0.12145 0.48388,-0.12144 1.35558,0.0644 1.355595,0.0644 0.0849,0.25736 0.0849,0.25736 -0.598485,0.14316 -0.59848,0.14314 -0.24615,0.19308 -0.24615,0.19307 -0.14816,1.97613 -0.14816,1.97612 0.24266,0.45341 0.24266,0.45341 h 0.53344 0.533455 l 0.67895,-0.3438 0.67894,-0.34381 0.37257,-0.3267 0.37256,-0.3267 0.14479,0.14479 0.14478,0.14479 -0.46155,0.95001 -0.46155,0.95002 h -0.92543 -0.925415 z m 56.898895,-2.25869 h -0.2643 l 0.72418,-0.74716 0.72418,-0.74716 0.007,-0.76716 0.007,-0.76716 0.35348,-0.22361 0.35347,-0.2236 0.33601,0.27886 0.33601,0.27886 v 0.48812 0.48811 l -0.55565,0.66035 -0.55564,0.66034 -0.60064,0.31061 -0.60064,0.3106 h -0.2643 z m -39.41257,-6.81275 -0.93864,0.76651 0.82724,-1.2729 0.82725,-1.27289 0.6948,-1.35147 0.6948,-1.35147 v -0.29269 -0.29268 h -0.16793 -0.16792 l -2.53697,0.31876 -2.53698,0.31876 -0.68948,0.11515 -0.68949,0.11515 v -0.52944 -0.52944 l -0.37126,-0.21624 -0.37126,-0.21624 0.13348,-0.006 0.13347,-0.006 1.14108,0.5224 1.14108,0.52241 2.10266,-0.31588 2.10267,-0.31587 0.54405,-0.26075 0.54406,-0.26076 0.49404,-0.89562 0.49405,-0.89561 0.0113,-0.82125 0.0113,-0.82125 -0.16015,-1.35811 -0.16015,-1.3581 -0.0396,-2.01542 -0.0395,-2.01541 -0.37503,-1.15276 -0.37503,-1.15275 -1.30614,-1.3614 -1.30613,-1.3614 -0.13402,0.60482 -0.13401,0.60481 -0.028,-0.63645 -0.028,-0.63644 -0.12792,-0.47734 -0.12792,-0.47733 h -0.18741 -0.1874 v 0.74252 0.74252 h -0.19963 -0.19963 l -0.13112,-0.21215 -0.13111,-0.21215 h -0.26113 -0.26113 l -1.05153,2.13717 -1.05154,2.13717 -0.11182,-0.47369 -0.11183,-0.4737 -0.87307,0.91757 -0.87307,0.91757 -0.74615,-0.028 -0.74615,-0.0281 -0.11934,0.31102 -0.11935,0.31101 h -0.61023 -0.61022 l -0.38398,-0.4243 -0.38399,-0.4243 h -0.28846 -0.28846 l -0.38658,-0.63568 -0.38659,-0.63569 -0.12009,0.1201 -0.12009,0.12009 0.0212,-0.74748 0.0212,-0.74748 -0.35999,-0.39779 -0.36,-0.39778 v -0.35456 -0.35455 h 0.23867 0.23867 l -0.13177,-0.65883 -0.13176,-0.65883 0.31739,0.12846 0.3174,0.12845 0.31644,0.12808 0.31643,0.12809 0.13605,-0.35454 0.13605,-0.35453 0.68743,0.66629 0.68744,0.66629 0.14004,-0.55797 0.14004,-0.55797 0.43244,0.13725 0.43243,0.13725 0.40512,-0.36662 0.40511,-0.36663 0.3222,0.26741 0.3222,0.2674 v -0.20696 -0.20696 l 1.80327,-0.58659 1.80327,-0.58659 v -0.17458 -0.17457 l -0.22457,-0.13879 -0.22457,-0.13879 0.1343,-0.61149 0.13431,-0.61148 -0.13618,-0.42906 -0.13619,-0.42907 h -0.20644 -0.20644 l -0.57482,0.42415 -0.57482,0.42415 -1.73921,0.21753 -1.73922,0.21753 -3.35236,-0.52548 -3.35236,-0.52547 -3.021475,-1.14324 -3.02147,-1.14324 0.15746,-0.16801 0.15746,-0.16801 -1.05889,0.11401 -1.05889,0.11401 0.63459,-0.34073 0.6346,-0.34074 -0.8486,-0.15712 -0.84859,-0.15712 -0.37126,-0.0122 -0.37126,-0.0122 v 0.4243 0.42429 h -0.2504 -0.25039 l -1.28769,-0.83802 -1.28768,-0.83803 -0.77602,-0.32347 -0.77601,-0.32347 -0.13963,-0.90696 -0.13964,-0.90695 -0.10299,-0.74252 -0.10299,-0.74252 0.28714,0.48399 0.28715,0.48399 0.14808,-0.14809 0.14809,-0.14809 v -0.77878 -0.77878 l -1.19634,-0.40571 -1.19634,-0.40572 -0.21691,0.34324 -0.2169,0.34324 -0.48939,-0.55539 -0.48939,-0.55539 -0.007,0.90163 -0.007,0.90163 h 0.33252 0.33252 l -0.13247,0.41736 -0.13246,0.41736 -0.008,1.04304 -0.008,1.04303 0.46729,1.56273 0.4673,1.56273 0.87881,1.88968 0.87881,1.88969 0.58378,0.8139 0.58379,0.8139 2.06808,1.64739 2.06807,1.64739 1.73092,1.01463 1.73093,1.01463 0.11596,0.30219 0.11596,0.30219 -0.68007,-0.12395 -0.68006,-0.12396 -0.75392,-0.50531 -0.75393,-0.5053 h -0.57882 -0.57882 l -0.68267,-0.29688 -0.68267,-0.29688 -1.59111,-1.30763 -1.59112,-1.30763 -1.37897,-1.33096 -1.37897,-1.33095 -1.05683,-2.15611 -1.05684,-2.15611 h -0.12766 -0.12766 l -0.11737,0.11737 -0.11738,0.11738 0.39661,1.52678 0.3966,1.52678 0.004,0.0464 0.004,0.0464 -0.31448,-0.12068 -0.31447,-0.12067 0.29184,0.96971 0.29184,0.96971 0.73015,1.01392 0.73016,1.01393 0.77225,1.29197 0.77225,1.29197 1.01298,0.94542 1.01298,0.94541 1.06074,0.5197 1.06074,0.51969 1.64885,-0.0607 1.64885,-0.0606 0.87653,0.96314 0.87653,0.96314 h 0.26405 0.26405 l 1.16788,0.61434 1.16788,0.61433 0.86908,0.14683 0.86908,0.14683 v 0.36891 0.36891 l 0.68948,-0.0964 0.689495,-0.0964 -0.16343,0.17282 -0.163435,0.17281 0.789895,0.80892 0.7899,0.80893 h -0.26717 -0.26716 l -0.62449,-0.68373 -0.624495,-0.68373 v 0.25943 0.25943 h -0.28688 -0.28689 l -2.30952,-0.96761 -2.30953,-0.9676 -0.32064,-0.27842 -0.32063,-0.27841 -0.79556,-0.14256 -0.79556,-0.14256 v 0.35667 0.35667 l -0.98428,-0.13491 -0.98428,-0.13491 -1.08417,-0.0135 -1.08417,-0.0135 0.47733,-0.19186 0.47734,-0.19187 v -0.21899 -0.21898 h -0.90303 -0.90304 l -0.71065,0.20381 -0.71065,0.20381 -1.19729,-0.60491 -1.19729,-0.60491 -0.40414,-0.4475 -0.40414,-0.44749 0.19199,8.5e-4 0.192,8.5e-4 1.47212,0.51544 1.47213,0.51543 0.39705,-0.21249 0.39705,-0.21249 -0.0659,-0.39269 -0.0659,-0.39253 -2.59882,-2.77417 -2.59883,-2.77417 v -0.62495 -0.62495 l -0.18992,-0.11737 -0.18991,-0.11738 -0.11632,0.30311 -0.11631,0.3031 -0.65295,-0.24646 -0.65295,-0.24646 -0.43392,0.27098 -0.43392,0.27099 -0.5306,0.20173 -0.5306,0.20174 0.13796,-0.43469 0.13797,-0.43469 -0.2512,-0.30267 -0.2512,-0.30268 0.44582,-0.92094 0.44582,-0.92095 v -0.27776 -0.27776 l 0.63645,0.12729 0.63644,0.12729 v -0.27756 -0.27756 l -0.12038,-0.12039 -0.12038,-0.12037 -0.67518,0.17239 -0.67517,0.17239 -0.98889,0.13495 -0.98888,0.13496 0.11582,-0.86353 0.11583,-0.86353 -0.37968,-0.41954 -0.37968,-0.41954 h -0.2486 -0.2486 l 0.0934,-0.63644 0.0934,-0.63645 -0.28926,0.005 -0.28927,0.005 -0.95467,0.43281 -0.95467,0.43281 -0.47733,0.44811 -0.47734,0.44811 v -0.4776 -0.4776 l -0.61333,-0.61333 -0.61333,-0.61333 0.29511,-0.24492 0.29511,-0.24492 v -0.18158 -0.18158 l -1.53808,-0.71078 -1.53808,-0.71078 -1.69719,-0.67838 -1.69719,-0.67839 -1.6972,-0.90576 -1.69719,-0.90575 -1.5535,-1.94464 -1.55351,-1.94463 -2.47732,-1.68568 -2.47732,-1.68569 -0.7852,-0.81509 -0.7852,-0.81509 -0.32859,-0.78874 -0.32858,-0.78875 v -0.85541 -0.85541 h 0.21215 0.21215 l 10e-4,0.47734 0.001,0.47733 0.22084,0.79521 0.22084,0.79521 0.52152,0.58376 0.52151,0.58376 -0.0541,-1.27289 -0.0541,-1.2729 -0.27177,0.0552 -0.27177,0.0552 0.32557,-0.62957 0.32556,-0.62957 -0.2802,-0.26175 -0.28021,-0.26175 0.30059,-0.8611 0.30059,-0.86111 -0.12256,-1.20639 -0.12255,-1.20639 -0.11407,-0.9151 -0.11406,-0.9151 0.32899,1.0112 0.32899,1.01119 0.40291,-0.21563 0.40292,-0.21564 h 0.12433 0.12433 l -0.42861,0.84014 -0.42861,0.84015 v 0.13722 0.13723 l 0.32925,-0.12635 0.32924,-0.12634 -0.12962,0.20972 -0.12961,0.20972 h 0.22956 0.22956 l -0.35938,0.54848 -0.35937,0.54848 0.30145,0.18913 0.30144,0.18913 0.68152,-0.79065 0.68152,-0.79065 0.008,-0.26518 0.008,-0.26519 h -0.22606 -0.2261 l -0.42148,0.22557 -0.42149,0.22558 0.5644,-0.91506 0.56439,-0.91506 0.74919,-0.64821 0.74918,-0.64822 -0.24801,-0.4634 -0.248,-0.4634 0.33725,-0.51472 0.33726,-0.51472 0.33395,-0.12815 0.33394,-0.12815 -0.12118,0.74678 -0.12119,0.74678 h 0.1002 0.1002 l 0.57247,-0.37126 0.57247,-0.37126 -0.47386,0.6692 -0.47386,0.66919 v 0.33851 0.33851 h 0.32312 0.32311 l -0.34751,0.53038 -0.34752,0.53037 h 0.3002 0.30019 l 0.28891,-0.26519 0.28892,-0.26518 -0.49257,0.71685 -0.49257,0.71686 0.22341,0.35774 0.22341,0.35774 -0.21982,0.39279 -0.21981,0.39279 -1.10873,1.12659 -1.10873,1.12658 -0.27213,0.69434 -0.27213,0.69433 -1.13644,1.17485 -1.13644,1.17484 1.0166,0.77528 1.01661,0.77528 1.58407,1.0501 1.58408,1.05011 0.575,0.55406 0.57501,0.55406 1.16945,1.46569 1.16946,1.4657 0.64352,0.45822 0.64352,0.45823 2.17322,1.01605 2.17322,1.01605 1.06074,0.36746 1.06075,0.36746 0.61618,0.32966 0.61618,0.32966 0.60368,-0.0172 0.60367,-0.0172 v 0.2616 0.26161 l -0.25458,0.25458 -0.25458,0.25458 0.41369,-0.001 0.41369,-10e-4 0.74252,-0.19038 0.74252,-0.19037 0.58341,-0.13071 0.58341,-0.1307 v -0.20811 -0.20811 h -1.04822 -1.04823 l -0.13111,-0.21215 -0.13111,-0.21215 h 0.42429 0.4243 l 0.12476,-0.20186 0.12476,-0.20187 -1.3321,-0.0755 -1.33209,-0.0755 2.12149,-0.0441 2.12149,-0.0441 -0.31823,-0.20547 -0.31822,-0.20565 0.34717,-0.003 0.34717,-0.003 0.15083,-1.0077 0.15081,-1.00771 0.11594,-0.18823 0.11593,-0.18822 0.25251,0.61252 0.25251,0.61253 0.35993,-0.69154 0.35993,-0.69153 -0.0468,-0.69548 -0.0468,-0.69547 0.16684,-0.26995 0.16684,-0.26995 -0.25833,-0.62364 -0.25832,-0.62365 h -0.18641 -0.18641 v 0.31823 0.31822 l -0.15911,-0.007 -0.15911,-0.007 -0.47734,-0.39821 -0.47733,-0.39821 v -0.1443 -0.14431 l 0.92578,-1.09458 0.92577,-1.09458 0.26295,-0.50431 0.26294,-0.50432 -0.28709,-0.20132 -0.28709,-0.20132 0.31823,0.0903 0.31822,0.0903 -0.0738,1.43538 -0.0738,1.43538 0.95632,-0.65797 0.95633,-0.65797 0.41837,-0.69246 0.41838,-0.69246 0.2784,-0.79159 0.2784,-0.7916 -0.36797,-0.77162 -0.36796,-0.77163 -0.37941,0.34336 -0.37941,0.34336 h -0.11484 -0.11483 l -0.26882,-0.96013 -0.26882,-0.96013 -0.21099,-0.1304 -0.21098,-0.1304 -0.209,0.37347 -0.209,0.37346 -0.17853,-0.28887 -0.17853,-0.28886 -0.26051,0.26051 -0.26052,0.26052 -0.38563,-0.34899 -0.38562,-0.34899 -0.58255,0.29204 -0.58255,0.29204 -0.14275,0.0721 -0.14275,0.0721 -0.0694,-0.47294 -0.0694,-0.47294 -0.23363,-0.0768 -0.23363,-0.0768 -0.34978,0.91588 -0.34978,0.91589 v 0.12902 0.12902 l 0.53037,0.13311 0.53037,0.13312 v 0.39756 0.39756 l -0.31822,0.12211 -0.31823,0.12211 v 0.98124 0.98124 l 1.11379,-0.11823 1.11378,-0.11823 -0.8486,0.21274 -0.84859,0.21275 -0.53038,-0.0614 -0.53037,-0.0614 -0.0219,-0.61649 -0.0219,-0.6165 -0.38994,-0.28514 -0.38995,-0.28513 h 0.2527 0.2527 v -0.2167 -0.2167 l -0.51689,-0.2355 -0.51688,-0.23551 -0.0766,-2.04054 -0.0766,-2.04055 -0.49682,-2.65186 -0.49682,-2.65186 -0.42537,-0.8486 -0.42537,-0.84859 -0.52424,-0.74252 -0.52423,-0.74252 0.9261,1.05827 0.92611,1.05828 1.53808,1.74183 1.53808,1.74183 v 0.65413 0.65412 l 0.28536,0.68267 0.28536,0.68267 0.34994,0.29021 0.34994,0.29021 0.83091,-0.0115 0.83091,-0.0115 0.42803,-0.26731 0.42803,-0.26731 0.21297,-0.46741 0.21297,-0.46742 -0.12244,-0.49869 -0.12244,-0.49869 -0.20748,-0.26518 -0.20748,-0.26519 h -0.16522 -0.16522 l -0.4381,0.74252 -0.4381,0.74252 h -0.43145 -0.43145 l 8.5e-4,-0.68948 8.5e-4,-0.68948 0.63485,-1.2729 0.63485,-1.27289 -0.004,-0.74252 -0.004,-0.74252 -0.39047,0.50784 -0.39047,0.50785 -0.24126,-0.14911 -0.24126,-0.1491 v -0.83608 -0.83607 h -0.21215 -0.21215 v -0.75682 -0.75682 l -0.4073,0.12928 -0.40729,0.12927 0.4164,-1.0959 0.41641,-1.0959 -0.0682,-0.0682 -0.0682,-0.0682 -0.89514,-0.20112 -0.89515,-0.20113 -0.78781,0.40165 -0.78781,0.40165 h -0.10091 -0.10091 l 0.60038,-0.62666 0.60038,-0.62666 0.69123,-0.32801 0.69123,-0.32801 h 0.77403 0.77403 l 0.57338,0.2965 0.57337,0.29651 0.38032,0.42024 0.38031,0.42025 0.54709,1.45778 0.5471,1.45778 0.18242,0.74252 0.18243,0.74252 0.1242,0.62581 0.12421,0.6258 0.61815,-1.0501 0.61814,-1.05011 0.004,-0.54745 0.004,-0.54746 -0.54539,-1.04366 -0.5454,-1.04366 -0.7195,-1.89377 -0.7195,-1.893763 -0.33473,-0.333797 -0.33473,-0.333799 -1.21477,0.02193 -1.21477,0.02193 -0.68606,0.354776 -0.68606,0.354777 0.002,-0.270634 0.002,-0.270634 0.49537,-1.060745 0.49538,-1.060744 0.75548,-1.166819 0.75549,-1.166819 0.92159,-1.097633 0.9216,-1.097632 0.65505,-0.811707 0.65505,-0.811708 0.23658,-0.444687 0.23656,-0.444687 3.24528,-2.333339 3.24528,-2.333338 2.97009,-1.981638 2.97008,-1.981638 2.01542,-1.04955 2.01541,-1.049549 1.18112,-0.601724 1.18111,-0.601727 3.050725,-0.749085 3.05072,-0.749087 2.02656,2.13e-4 2.02655,2.12e-4 1.48505,0.284065 1.48504,0.284065 0.74252,0.377178 0.74252,0.377175 0.67533,0.505326 0.67533,0.505328 h 0.35014 0.35014 l 1.52032,1.26145 1.52031,1.261452 0.24629,0.402599 0.24629,0.402599 0.74044,0.351365 0.74045,0.351363 h 0.67728 0.67728 l 0.11213,0.42877 0.11213,0.428768 0.30946,-0.256836 0.30947,-0.256836 -0.13928,0.835773 -0.13928,0.835776 -0.21532,0.567674 -0.21532,0.567672 -1.1476,0.543362 -1.1476,0.543362 v 0.440992 0.44099 l 0.21497,0.40167 0.21497,0.40167 0.99714,0.441083 0.99713,0.44108 0.37901,0.343001 0.37902,0.343002 v 0.159903 0.159903 l -1.37897,1.083688 -1.37897,1.083688 v 0.509442 0.509444 l 0.12877,0.335572 0.12877,0.335575 h 0.25584 0.25583 l 0.55807,0.58341 0.55807,0.583409 0.54151,1.184022 0.54152,1.184024 0.12879,0.939661 0.1288,0.93966 -0.24303,0.902546 -0.24303,0.90255 -0.9054,1.11067 -0.90539,1.11067 h -0.60599 -0.60599 l -0.088,-0.26388 -0.088,-0.26388 0.52263,-0.1987 0.52263,-0.19871 0.66165,-0.98038 0.66165,-0.98038 0.318,-0.614952 0.31801,-0.614947 v -0.867583 -0.867583 l -0.40888,-0.801464 -0.40888,-0.801465 -1.18994,-0.979627 -1.18994,-0.979625 -1.03148,0.306313 -1.03147,0.306316 -0.74958,0.313195 -0.74958,0.313196 -0.13437,0.21741 -0.13437,0.217412 0.42733,0.543256 0.42732,0.543254 0.14092,0.939739 0.14093,0.939739 h 0.17265 0.17265 l 0.54578,1.15368 0.54578,1.153686 v 0.52719 0.52719 l -0.59231,-0.56709 -0.59231,-0.56709 -0.66607,-0.35307 -0.66607,-0.353062 -0.657,-0.90696 -0.657,-0.90696 -0.0812,-0.437166 -0.0811,-0.437167 -0.57205,-2.46366 -0.57205,-2.463661 0.4339,-0.980898 0.43389,-0.9809 0.75684,-0.36091 0.75683,-0.360907 -0.2481,-0.153337 -0.2481,-0.153335 0.57862,-0.687658 0.57863,-0.687659 -0.27861,-0.176675 -0.2786,-0.176676 -0.46995,-0.0032 -0.46996,-0.0032 -0.72487,0.636447 -0.72487,0.636447 h -0.31339 -0.31338 l -0.96437,-0.848872 -0.96437,-0.848873 -0.48363,-1.166849 -0.48363,-1.166848 -0.22603,0.04133 -0.22602,0.04132 -0.78732,-0.761523 -0.78732,-0.761526 0.4691,0.116328 0.4691,0.116328 0.57804,0.402654 0.57805,0.402656 1.33129,1.5319 1.3313,1.531897 0.33813,0.51695 0.33814,0.516949 0.9249,-0.732537 0.92491,-0.732535 -0.37699,-0.0726 -0.37698,-0.0726 0.12165,-0.317019 0.12165,-0.317018 v -0.08872 -0.08872 h 0.96133 0.96133 l 0.10783,-0.281004 0.10783,-0.281004 -0.42517,-0.991889 -0.42518,-0.991889 h -0.2462 -0.24621 l 0.12345,0.617258 0.12345,0.617255 -0.32643,0.125266 -0.32643,0.125263 h -0.91456 -0.91456 l -1.63848,-1.586163 -1.63847,-1.586163 0.12991,-0.338545 0.12991,-0.338545 -0.238,-0.461967 -0.23799,-0.461967 0.72619,0.689484 0.72619,0.689484 h 0.45294 0.45294 l 0.13959,0.439791 0.13958,0.439789 0.39033,-0.353243 0.39033,-0.353243 -0.11606,0.443824 -0.11607,0.443826 h 0.20401 0.20402 l 0.38219,-0.422322 0.3822,-0.422323 0.26848,0.367166 0.26848,0.367166 0.25772,-0.565646 0.25773,-0.565646 -0.12531,-0.492979 -0.12531,-0.492979 -1.7949,-1.782615 -1.79491,-1.782615 -0.63569,0.263313 -0.63569,0.263311 -0.64464,-0.476603 -0.64464,-0.476603 -2.92566,0.482044 -2.92566,0.482045 -0.82434,0.419073 -0.824345,0.419074 -0.15928,-0.257722 -0.15928,-0.257723 -1.21345,0.555537 -1.21346,0.55554 -0.18165,-0.112265 -0.18164,-0.112265 -1.07673,0.545619 -1.07673,0.545621 -0.23754,0.521337 -0.23754,0.521339 -1.10442,0.623298 -1.10442,0.623297 -0.78554,0.916172 -0.78553,0.916173 -0.63819,0.95467 -0.63818,0.95467 0.10812,0.687072 0.10812,0.687069 -0.38532,0.26989 -0.38532,0.269889 -0.42893,1.429714 -0.42892,1.429716 0.13849,0.02512 0.13849,0.02512 0.17488,-0.03038 0.17488,-0.03038 -0.14902,0.241124 -0.14903,0.241124 0.29237,0.185181 0.29237,0.18518 0.13199,0.0032 0.132,0.0032 0.13617,-0.851581 0.13618,-0.851578 0.42131,-0.421315 0.42112,-0.421232 h 0.1974 0.19739 l 0.0816,0.477335 0.0816,0.477335 0.60176,-1.336184 0.60176,-1.336183 0.22322,0.223223 0.22322,0.223223 0.8178,-0.79638 0.81779,-0.796379 -0.14122,0.371261 -0.14122,0.37126 h 0.11839 0.1184 l 1.46332,-0.764374 1.46332,-0.764375 1.35803,-0.104388 1.35803,-0.10439 0.58707,0.228459 0.587085,0.228459 -0.0472,0.619171 -0.0472,0.619172 0.29325,0.353344 0.29325,0.353345 0.58244,0.301194 0.58245,0.301194 0.98398,0.851636 0.984,0.851637 0.1462,-0.0032 0.14621,-0.0032 0.31823,-0.20524 0.31822,-0.205241 -0.44614,-0.799218 -0.44614,-0.799218 0.27746,-0.636446 0.27746,-0.636447 0.01,-0.265186 0.01,-0.265192 -1.53808,-0.02495 -1.53808,-0.02495 1.01992,-0.171357 1.01992,-0.171357 0.26743,-0.221946 0.26743,-0.221948 0.45679,0.31995 0.45679,0.319948 0.25571,0.893866 0.25572,0.893866 -0.0668,0.212149 -0.0668,0.212149 0.0395,0.742103 0.0395,0.742103 0.20196,0.20196 0.20196,0.201959 v -1.103174 -1.103174 h 0.62089 0.62089 l 0.10532,-0.371261 0.10531,-0.37126 -0.021,1.591116 -0.021,1.591117 0.15725,0.476 0.15725,0.476001 -0.3321,-0.127438 -0.33209,-0.127438 v 0.871293 0.871294 h 0.31822 0.31822 l -0.008,0.795558 -0.008,0.795558 -0.32338,-0.596537 -0.32338,-0.596537 -0.2481,0.0827 -0.24809,0.0827 -0.17525,0.886196 -0.17526,0.886199 -1.43626,1.549009 -1.43626,1.549008 -0.24823,-0.08274 -0.24822,-0.08274 v 0.187399 0.187398 l 0.2446,0.244608 0.24461,0.244607 -1.52005,-0.528622 -1.52005,-0.528622 -1.358635,-0.126869 -1.35862,-0.126871 0.10045,-0.261765 0.10045,-0.261766 -1.7624,0.286541 -1.7624,0.286539 -0.15911,0.0042 -0.15911,0.0042 v 0.212149 0.212149 l 0.47734,0.0013 0.47733,0.0013 -0.612,0.319167 -0.61199,0.319167 -0.28858,-0.239495 -0.28857,-0.239494 -0.4784,0.318944 -0.47839,0.318943 -1.42588,1.371447 -1.42587,1.371449 -0.43885,1.02378 -0.43884,1.02379 0.10783,0.281 0.10783,0.28101 h 0.32488 0.32489 v 0.18851 0.1885 l 1.74291,0.90677 1.74292,0.90676 -0.33183,0.20931 -0.33183,0.20931 0.64875,0.57966 0.64875,0.57966 -0.0521,2.04014 -0.0521,2.04014 0.25034,0.46777 0.25035,0.46777 0.0435,0.75246 0.0435,0.75246 0.4026,1.59111 0.40261,1.59112 0.36878,0.27497 0.36879,0.27496 0.53164,0.90718 0.53164,0.90718 1.17537,1.12178 1.17538,1.12178 0.31406,0.60733 0.31406,0.60733 0.687035,-0.13607 0.68704,-0.13605 -0.28236,0.34338 -0.28235,0.34339 -0.898415,0.43492 -0.89841,0.43491 -1.4711,-0.002 -1.4711,-0.002 -1.06074,-0.32525 -1.06075,-0.32526 -1.02741,0.13802 -1.02742,0.13803 0.34554,-0.52737 0.34555,-0.52738 -0.34318,-0.13169 -0.34319,-0.13169 h -0.4238 -0.42381 l 0.13922,0.68948 0.13922,0.68948 -0.53903,-0.63644 -0.53903,-0.63645 -0.008,0.37126 -0.008,0.37126 h -0.21215 -0.21215 v -0.17993 -0.17993 l -0.79556,-0.36154 -0.79556,-0.36155 -0.83027,-1.15244 -0.83028,-1.15244 -0.40557,-0.12872 -0.40556,-0.12872 -0.0717,0.0724 -0.0717,0.0724 0.1673,0.91286 0.16731,0.91286 0.42591,0.4661 0.42592,0.46611 0.35354,0.69926 0.35354,0.69926 1.20935,0.86399 1.20936,0.864 1.48504,0.93965 1.48504,0.93964 -1.16682,-0.14258 -1.16681,-0.14259 -0.53038,-0.19992 -0.53037,-0.19992 -0.48281,-0.45229 -0.48281,-0.45229 -1.27831,-1.97329 -1.2783,-1.97329 h -0.22396 -0.22396 l 0.10508,0.26519 0.10508,0.26518 0.5761,1.4307 0.57611,1.4307 1.03701,0.86824 1.03701,0.86824 1.0094,0.48176 1.0094,0.48176 1.38441,0.45603 1.3844,0.45602 1.05531,0.002 1.05531,0.002 0.99511,0.007 0.99512,0.007 0.82891,-0.42288 0.82892,-0.42288 0.66435,0.94251 0.664345,0.94252 h 0.20223 0.20222 l 0.13954,-0.43964 0.13953,-0.43964 0.29906,0.11476 0.29906,0.11476 v -0.60382 -0.60381 l 0.31822,-0.2641 0.31822,-0.2641 v 0.98065 0.98064 h 0.23201 0.23201 l 0.11096,-0.4243 0.11096,-0.42429 h 0.19794 0.19794 l 0.59901,0.30976 0.59902,0.30976 0.13297,-0.13297 0.13297,-0.13297 v 0.2475 0.24751 h 0.38187 0.38187 l 0.25458,-0.25458 0.25457,-0.25458 v -0.59401 -0.59402 h 0.0967 0.0966 l 0.75899,0.51506 0.75899,0.51507 0.6294,0.13824 0.6294,0.13824 -8e-5,0.14225 -8e-5,0.14226 2.00821,-0.035 2.0082,-0.035 1.33322,-0.99442 1.33322,-0.99442 -0.90657,0.88261 -0.90657,0.8826 0.1259,0.20372 0.12591,0.20372 0.62002,-0.44149 0.62002,-0.44149 -0.14033,0.36568 -0.14032,0.36567 0.4479,-0.11713 0.4479,-0.11712 -0.42647,1.08197 -0.42648,1.08198 0.21239,1.59987 0.2124,1.59988 0.69443,0.53037 0.69444,0.53037 0.98888,0.87049 0.98889,0.8705 1.82531,1.10254 1.82532,1.10254 0.12723,0.20587 0.12723,0.20586 -0.8548,-0.34202 -0.8548,-0.34203 -0.6985,0.21253 -0.6985,0.21252 -0.56858,0.12545 -0.56857,0.12544 -0.33306,0.33306 -0.33306,0.33306 v 0.58414 0.58413 l 0.54116,1.57524 0.54115,1.57524 0.41203,1.69719 0.41203,1.69719 -0.003,1.90934 -0.003,1.90934 -0.42196,1.90934 -0.42196,1.90934 -0.64289,0.89539 -0.64289,0.89539 -0.57471,1.41426 -0.57471,1.41426 -0.93863,0.76651 z m -24.360135,-13.76894 0.47734,-0.003 -0.31822,-0.20565 -0.31823,-0.20565 -0.15911,-0.003 -0.15911,-0.003 v 0.21215 0.21215 l 0.47733,-0.003 z m 19.911665,-4.23973 h 0.18945 v -0.53037 -0.53037 h -0.19447 -0.19447 l -0.0925,0.26518 -0.0925,0.26519 0.0975,0.26518 0.0975,0.26519 z m -5.40745,-0.84859 h 0.31822 l -0.13112,-0.21215 -0.13111,-0.21215 h -0.31822 -0.31823 l 0.13112,0.21215 0.13111,0.21215 z m 1.14177,-0.21215 h 0.21215 v -0.31823 -0.31822 h -0.21215 -0.21214 v 0.31822 0.31823 z m 8.70557,-2.54579 h 0.20469 v -0.12002 -0.12002 l -0.22279,-0.4163 -0.2228,-0.41629 -0.20208,0.12489 -0.20208,0.12489 0.22019,0.41143 0.22019,0.41142 z m -2.02288,-3.60653 h 0.53038 v -0.18945 -0.18945 l -0.33558,-0.12878 -0.33557,-0.12877 h -0.1948 -0.1948 v 0.31823 0.31822 z m -0.73727,-1.06075 h 0.2174 l 0.21284,-0.55979 0.21283,-0.5598 -0.12935,-0.12935 -0.12936,-0.12936 -0.30088,0.41148 -0.30088,0.41147 v 0.27768 0.27767 z m 2.11624,-0.95467 0.21215,-0.13111 v -0.19963 -0.19963 h -0.21215 -0.21215 v 0.33075 0.33074 z m -1.16007,-1.04825 0.31148,-0.41181 v -0.21215 -0.21215 l -0.31148,0.41181 -0.31147,0.41181 v 0.21215 0.21215 z m -35.413515,-1.02462 0.12817,-0.12817 -0.11142,-0.27845 -0.11143,-0.27844 -0.0167,0.40662 -0.0168,0.40662 0.12817,-0.12818 z m 19.58915,0.0575 h 0.64897 v -0.21215 -0.21215 h -0.51785 -0.51786 l -0.13111,0.21215 -0.13112,0.21215 z m 16.425915,-0.4243 h 0.12333 l 0.32912,-0.63644 0.32912,-0.63645 h -0.32367 -0.32368 v 0.30087 0.30087 l -0.12877,0.33558 -0.12877,0.33557 z m -27.314695,-0.90832 0.12045,-0.12045 -0.13974,-0.44028 -0.13974,-0.44029 h -0.21038 -0.21037 l 0.0859,0.15911 0.0859,0.15912 0.14378,0.40162 0.14378,0.40163 z m 3.17039,-0.15242 h 0.0935 v -0.0936 -0.0936 l -0.24493,-0.15137 -0.24493,-0.15138 0.15138,0.24493 0.15137,0.24493 z m -14.40422,-1.43201 0.10701,-0.26518 -0.10701,-0.26519 -0.10701,-0.26519 v 0.53038 0.53037 z m 22.98373,0.15911 h 0.18711 l 0.13111,-0.21214 0.13111,-0.21215 h -0.44933 -0.44934 l 0.13111,0.21215 0.13112,0.21214 z m -10.4524,-0.63645 h 0.0811 l -0.37596,-0.63645 -0.37596,-0.63645 h -0.1664 -0.16641 v 0.14544 0.14544 l 0.46128,0.49101 0.46128,0.49101 z m -9.85353,-1.90164 0.19468,-0.94697 0.26965,-0.21985 0.26965,-0.21985 0.23927,-0.72114 0.23928,-0.72114 v -0.66366 -0.66366 l -0.33026,-0.4715 -0.33025,-0.4715 h -0.38009 -0.38008 l -0.36113,0.90163 -0.36113,0.90163 -0.10972,1.37897 -0.10973,1.37897 0.47758,0.74252 0.47759,0.74252 z m 2.59149,0.62874 h 0.31823 v -0.0801 -0.0801 l -0.31823,-0.2641 -0.31822,-0.2641 v 0.3442 0.34419 z m 0.037,-2.12148 h 0.28125 v -0.0885 -0.0885 l -0.41676,-0.97225 -0.41676,-0.97226 h -0.19496 -0.19495 l -0.11381,0.58341 -0.11381,0.58341 0.44428,0.47733 0.44428,0.47734 z m 16.3775,-1.49179 0.55744,-0.007 0.37126,-0.28183 0.37126,-0.28182 v -0.12128 -0.12128 l -0.62079,-0.44204 -0.62078,-0.44203 -0.59218,0.50936 -0.59218,0.50937 0.28427,0.34252 0.28427,0.34253 0.55743,-0.007 z m -1.74167,-0.41755 h 0.28369 v -0.32488 -0.32489 l 0.31434,-0.12062 0.31434,-0.12062 -0.19092,-0.35006 -0.19093,-0.35005 -0.4499,-0.47734 -0.4499,-0.47733 h -0.50696 -0.50695 l -0.31985,0.31985 -0.31985,0.31985 -0.13213,-0.21378 -0.13212,-0.21377 h -0.19963 -0.19962 v 0.30655 0.30654 l 1.20135,0.86027 1.20136,0.86028 z m -3.05765,-0.86217 0.15911,0.0136 -0.003,-0.15911 -0.003,-0.15911 -0.73692,-0.47734 -0.73692,-0.47733 h -0.10905 -0.10905 v 0.27973 0.27974 l 0.68948,0.34314 0.68949,0.34314 0.15911,0.0136 z m -12.31642,-1.25932 h 0.2046 l -0.14771,-0.68949 -0.14771,-0.68948 -0.0762,-0.0833 -0.0762,-0.0833 -0.31549,0.26184 -0.3155,0.26183 0.33477,0.51092 0.33477,0.51092 z m 7.19778,-0.4243 h 0.18617 v -0.11062 -0.11063 l -0.57458,-0.89708 -0.57459,-0.89708 -0.0619,-0.0884 -0.0619,-0.0884 -0.12171,0.12171 -0.12172,0.12172 0.36038,0.7092 0.36038,0.7092 0.21161,0.26518 0.21161,0.26519 z m 5.70951,-0.8486 h 0.20468 v -0.30441 -0.30441 l -0.23399,-0.59722 -0.234,-0.59722 -0.18931,0.49313 -0.18931,0.49314 0.21862,0.4085 0.21863,0.40849 z m -2.13088,-1.06074 h 0.18518 l 0.4521,-0.63491 0.4521,-0.63491 -0.54373,-0.24774 -0.54372,-0.24774 v -0.17809 -0.1781 h 0.31822 0.31822 l -0.003,-1.53808 -0.003,-1.53808 -0.13106,-0.48933 -0.13105,-0.48934 -0.29035,0.11142 -0.29034,0.11141 -0.0244,-0.3646 -0.0244,-0.3646 0.0333,-0.34493 0.0333,-0.34494 -0.67196,-0.56541 -0.67196,-0.56542 -0.10799,0.10799 -0.10799,0.10799 0.2698,0.65136 0.2698,0.65135 0.3952,0.21151 0.3952,0.2115 v 1.25114 1.25113 l -0.43316,0.13748 -0.43316,0.13748 0.10376,0.35415 0.10376,0.35415 0.34844,1.377 0.34844,1.377 0.0996,0.16108 0.0995,0.16108 h 0.18519 z m -9.77038,-0.63645 h 0.17365 l 0.24508,-0.2953 0.24508,-0.29529 0.28167,-1.61982 0.28168,-1.61981 -0.12952,-0.0723 -0.12951,-0.0723 -1.12524,-0.26404 -1.12523,-0.26403 -0.1201,0.1201 -0.1201,0.12011 0.13462,0.53636 0.13462,0.53636 0.63338,0.72138 0.63338,0.72138 v 0.54288 0.54289 l -0.21561,0.13325 -0.21561,0.13325 0.12206,0.19749 0.12205,0.19749 z m 2.70242,-0.56756 0.0938,-0.24934 -0.44101,-0.86444 -0.44101,-0.86444 h -0.10176 -0.10176 v 0.74252 0.74252 h 0.29552 0.29553 l 0.15347,0.37126 0.15347,0.37126 z m -11.68259,-0.91748 h 0.29552 l -0.003,-0.90163 -0.003,-0.90163 -0.13475,-0.50348 -0.13476,-0.50348 -0.27913,0.50348 -0.27912,0.50348 -0.008,0.56605 -0.007,0.56606 0.12877,0.33558 0.12877,0.33557 h 0.29553 z m -18.81433,-0.63645 h 0.1957 l 0.97112,-1.11013 0.97112,-1.11014 v -0.38237 -0.38237 l -0.4175,0.22344 -0.4175,0.22344 -0.74932,0.98135 -0.74932,0.98135 v 0.28772 0.28771 z m 31.21698,-1.63955 0.44557,-0.11651 0.1,-0.26047 0.0999,-0.26046 -0.67948,-1.51962 -0.67948,-1.51962 0.24864,-0.5457 0.24864,-0.54571 0.28148,0.23361 0.28148,0.23361 0.37988,-1.43188 0.37987,-1.43187 0.0948,-0.16942 0.0948,-0.16941 0.32037,0.26588 0.32037,0.26589 -0.11333,-1.26329 -0.11333,-1.26329 -0.14306,-0.79556 -0.14307,-0.79556 h -0.15781 -0.15781 l -0.13589,1.60761 -0.13589,1.60761 -0.21503,0.35477 -0.21502,0.35477 0.13223,-1.09316 0.13224,-1.09315 -0.43495,-0.23278 -0.43494,-0.23277 h -0.12407 -0.12406 l 0.12557,0.5003 0.12557,0.50031 -0.85019,0.67336 -0.85019,0.67337 -0.0669,0.47048 -0.0669,0.47048 -0.58341,-0.0611 -0.58341,-0.0611 v 0.43233 0.43232 h 0.31822 0.31822 v 0.45966 0.45966 l -0.13396,-0.13397 -0.13397,-0.13397 -0.40132,0.21477 -0.40131,0.21478 0.0773,0.75401 0.0773,0.75401 1.51536,1.65662 1.51536,1.65661 z m -2.43225,-3.93377 -0.12818,0.12817 0.0168,-0.40662 0.0167,-0.40662 0.11143,0.27845 0.11142,0.27844 z m 0.22541,-0.86186 -0.14144,0.14143 v -0.28286 -0.28287 l 0.14144,0.14144 0.14143,0.14143 z m 2.1922,-0.99003 -0.20565,0.31823 v -0.21215 -0.21215 l 0.20565,-0.31822 0.20565,-0.31823 v 0.21215 0.21215 z m 5.02914,5.35676 0.0919,-0.47733 -0.0919,-0.47734 -0.0919,-0.47733 v 0.95467 0.95467 z m -35.5802,-0.26518 h 0.13981 l 0.43689,-0.47734 0.4369,-0.47733 0.14475,-0.47734 0.14476,-0.47733 -0.17341,0.004 -0.17341,0.004 -0.67986,0.81904 -0.67986,0.81904 0.13181,0.13181 0.13181,0.13181 h 0.13981 z m 2.52469,-1.06075 0.64775,-0.74252 0.006,-0.25266 0.006,-0.25267 -0.1838,-0.11359 -0.18379,-0.11359 -0.34406,0.38017 -0.34406,0.38018 -0.1256,0.7286 -0.1256,0.7286 z m -0.68044,-1.06074 h 0.14544 l 0.49101,-0.46128 0.491,-0.46128 v -0.28124 -0.28124 h -0.11625 -0.11625 l -0.51349,0.58341 -0.51349,0.5834 -0.007,0.15912 -0.007,0.15911 z m 0.25898,-1.49306 0.61657,-0.73451 -0.18051,-0.0668 -0.18051,-0.0668 -0.43606,0.23337 -0.43606,0.23338 v 0.56793 0.56793 z m 31.66542,-1.47703 h 0.17679 l -0.003,-0.15911 -0.003,-0.15911 -0.12792,-0.47733 -0.12792,-0.47734 h -0.1874 -0.18741 v 0.49501 0.49502 l 0.14143,0.14143 0.14143,0.14143 h 0.1768 z m -11.70355,-0.21214 h 0.21215 v -0.33075 -0.33074 l -0.21215,0.13111 -0.21214,0.13112 v 0.19963 0.19963 z m 5.94017,-1.37897 0.21215,-0.13112 v -0.19963 -0.19962 h -0.21215 -0.21215 v 0.33074 0.33074 z m -2.07743,-3.37456 0.19995,-0.3573 0.008,-1.37389 0.008,-1.37389 -0.26174,-0.6319 -0.26174,-0.631901 h -0.21079 -0.21086 l 0.13052,1.166821 0.13052,1.16682 0.1342,1.19627 0.1342,1.19627 0.19995,-0.3573 z m 6.18959,-0.76235 h 0.55512 v -0.0961 -0.0961 l -0.2462,-0.54036 -0.2462,-0.54035 h -0.1781 -0.1781 l -0.003,0.15911 -0.003,0.15911 -0.12792,0.47733 -0.12792,0.47734 h 0.55512 z m -5.19503,-1.06074 h 0.20924 l 0.10587,-0.1713 0.10587,-0.1713 0.14613,-1.1016 0.14613,-1.101591 h -0.23544 -0.23544 l -0.0979,0.477331 -0.0979,0.47734 -0.12791,0.79556 -0.12791,0.79556 z m 5.73296,-0.63645 h 0.19496 l 0.96173,-1.21231 0.96172,-1.212308 -0.082,-0.082 -0.082,-0.082 -0.84069,0.472496 -0.84069,0.472492 -0.234,0.51357 -0.234,0.51357 v 0.30824 0.30824 z m -6.29913,-1.49221 0.15422,0.007 0.35045,-0.534846 0.35044,-0.534851 -0.17862,-0.897154 -0.17863,-0.897156 0.0543,-2.810973 0.0543,-2.810972 h -0.19172 -0.19171 l -0.49461,0.932343 -0.49461,0.932345 -0.25207,-0.09673 -0.25207,-0.09673 -0.46455,0.751665 -0.46456,0.751666 -0.11527,1.117616 -0.11528,1.117617 1.13792,1.530915 1.13791,1.530915 0.15422,0.007 z m 22.519735,-3.175066 h 0.0801 l 0.2641,-0.318223 0.2641,-0.318224 h -0.3442 -0.3442 v 0.318224 0.318223 z m -13.637485,-0.700015 1.50519,-0.439082 0.18675,-0.491197 0.18675,-0.491195 0.80081,-0.0032 0.80081,-0.0032 0.26746,-0.169785 0.26745,-0.169787 -0.53264,-0.500394 -0.53264,-0.500391 V 88.54864 88.353315 l 0.93941,0.55053 0.93941,0.550531 0.4926,-0.0032 0.49259,-0.0032 0.24457,-0.155861 0.24457,-0.155864 1.08136,-1.352971 1.08136,-1.352971 v -0.185108 -0.185109 h -1.27289 -1.2729 v -0.33508 -0.335079 l -0.68948,0.149294 -0.68948,0.149293 -1.01556,0.397934 -1.01557,0.397936 h -0.4284 -0.4284 l -0.59959,-0.656469 -0.5996,-0.656469 -0.0983,0.179134 -0.0983,0.179134 -0.27242,1.007707 -0.27243,1.007708 h -0.29065 -0.29065 v 0.196594 0.196592 l 0.28687,0.06859 0.28687,0.06859 -0.27073,0.742521 -0.27073,0.742521 -0.0161,-0.477335 -0.0161,-0.477348 h -0.18741 -0.18741 l -0.12792,0.477335 -0.12792,0.477335 -0.003,1.195465 -0.003,1.195464 1.50519,-0.439083 z m -0.97481,-1.421474 h -0.10608 v -0.106074 -0.106075 h 0.10608 0.10607 v 0.106075 0.106074 z m 12.100935,1.90934 h 0.75098 l 0.8013,-0.408792 0.8013,-0.408791 0.27318,-0.329171 0.27319,-0.329168 -0.39345,-0.670051 -0.39346,-0.670051 -0.73921,-0.395252 -0.73921,-0.395255 h -0.70482 -0.704835 l 0.330265,0.471503 0.33025,0.471501 -0.007,0.536206 -0.008,0.536205 -0.30319,0.530372 -0.303195,0.530372 -0.007,0.265186 -0.007,0.265186 z M 83.051555,91.363619 h 0.31278 v -1.90934 -1.90934 h -0.16988 -0.16987 l -0.46657,0.960345 -0.46658,0.960345 v 0.323083 0.323084 l 0.32368,0.625911 0.32367,0.625912 z m 1.78964,-0.212149 h 0.20397 l 0.24912,-0.901633 0.24912,-0.901633 0.095,0.265186 0.095,0.265186 h 0.16251 0.1625 l 0.12263,-2.174526 0.12263,-2.174526 -0.15214,-0.741239 -0.15213,-0.74124 -0.37762,-0.07272 -0.37761,-0.07272 -0.84228,0.557396 -0.84228,0.557393 -0.22879,0.502131 -0.22879,0.502129 0.76764,1.243664 0.76763,1.243663 v 1.321747 1.321747 z m 8.18694,-0.03278 0.37811,-0.0733 0.0951,-0.285446 0.095,-0.285449 -0.37811,0.0733 -0.37812,0.0733 -0.0951,0.285447 -0.095,0.285448 z m 3.60225,-0.272954 0.31148,-0.411809 v -0.277675 -0.277676 h -0.18945 -0.18946 l -0.12877,0.335575 -0.12877,0.335573 0.007,0.353911 0.007,0.353909 0.31148,-0.411808 z m 2.95123,0.09358 h 0.10729 l 0.315215,-0.609551 0.31521,-0.609548 -0.13297,-0.132973 -0.13298,-0.13297 h -0.169325 -0.16933 l -0.23595,0.440875 -0.23595,0.440875 0.11575,0.301646 0.11576,0.301646 z m -15.58084,-1.06074 h 0.21215 v -0.742521 -0.742521 h -0.21215 -0.21214 v 0.742521 0.742521 z m -6.0153,-0.962421 0.26815,-0.628695 0.01,-0.265186 0.01,-0.265186 h -0.1657 -0.16564 l -0.25197,0.667535 -0.25196,0.667535 0.13988,0.226345 0.1399,0.226346 z m 38.290725,-2.67869 0.55916,0.03458 0.60766,-0.316917 0.60766,-0.316916 0.67696,-0.0013 0.67697,-0.0013 0.13111,-0.212149 0.13112,-0.212149 h -0.43682 -0.43682 v -0.318168 -0.318224 h 0.21215 0.21215 v -0.295525 -0.295526 l -0.33557,-0.128772 -0.33558,-0.128772 h -0.92107 -0.92107 l -0.95448,0.728572 -0.95448,0.728575 -0.70592,0.385207 -0.70592,0.385141 1.16681,0.124532 1.16682,0.124533 z m -25.115395,-0.603411 0.15911,-0.0015 1.89574,-0.71503 1.89574,-0.715031 0.4678,-0.450244 0.4678,-0.450241 h 0.55351 0.55351 V 82.9838 82.665576 h 0.79839 0.79839 l 1.10258,0.742521 1.102585,0.742521 h 0.22052 0.22051 v -0.19408 -0.19408 L 100.33625,82.9838 99.275495,82.205141 v -0.112749 -0.112748 l 0.4243,0.110956 0.424305,0.110956 -0.003,-0.245325 -0.003,-0.245325 -0.155865,-0.233427 -0.15587,-0.233487 -0.46339,-0.24391 -0.46339,-0.243907 h -0.98256 -0.98257 l -0.41035,0.219612 -0.41035,0.219614 v 0.204684 0.204685 l 1.00771,0.03395 1.00771,0.03395 -0.68949,0.08557 -0.68948,0.08556 v 0.27364 0.273638 l -1.07183,-0.102988 -1.07183,-0.102989 0.13165,0.524512 0.13164,0.524515 -1.12827,0.432843 -1.12826,0.432843 0.0545,0.309568 0.0545,0.309567 -0.85009,0.254689 -0.85008,0.254691 v 0.203634 0.203633 l 0.15911,-0.0015 z m 26.219025,-2.374295 0.63818,-0.06387 0.0871,-0.265186 0.087,-0.265186 h -0.99832 -0.99833 l 0.2731,0.329057 0.27309,0.329056 z M 93.653555,83.089812 h 0.53037 v -0.212148 -0.212149 h -0.53037 -0.53037 v 0.212149 0.212148 z m 19.043825,-4.613183 0.16257,-0.08341 -0.12205,-0.197489 -0.12206,-0.19749 h -0.41177 -0.41178 v 0.196595 0.196592 l 0.37126,0.08431 0.37126,0.08431 z m 1.00425,0.158057 h 0.21215 v -0.305702 -0.305705 l -0.21215,-0.131114 -0.21215,-0.131114 v 0.436816 0.436819 z m -3.07616,78.282934 h -0.10607 v -0.10607 -0.10607 h 0.10607 0.10607 v 0.10607 0.10607 z m 8.44745,0 h -0.10293 l 0.0707,-0.19752 0.0707,-0.19752 1.36565,-1.72996 1.36565,-1.72997 1.2144,-1.09563 1.21441,-1.09564 0.65521,-0.38325 0.65522,-0.38326 v 0.10077 0.10076 l -0.69459,0.42928 -0.69459,0.42928 -1.52637,1.5504 -1.52636,1.5504 -0.98211,1.32593 -0.98211,1.32593 z m -8.87175,-0.21214 h -0.10607 v -0.10608 -0.10607 h 0.10607 0.10608 v 0.10607 0.10608 z m -0.41177,-0.21215 h -0.0936 l -0.15137,-0.24493 -0.15138,-0.24493 0.24493,0.15138 0.24493,0.15137 v 0.0935 0.0936 z m -0.64897,-0.4243 h -0.10608 v -0.10607 -0.10608 h 0.10608 0.10607 v 0.10608 0.10607 z m 5.56891,-0.0208 -0.26519,-0.0209 -3.80794,-2.59878 -3.80794,-2.59879 -0.0876,-0.26296 -0.0877,-0.26297 4.16078,2.77917 4.16078,2.77917 v 0.10343 0.10343 l -0.26518,-0.0208 z m -5.99321,-0.1913 h -0.10607 v -0.10607 -0.10608 h 0.10607 0.10607 v 0.10608 0.10607 z m -0.4243,-0.21215 h -0.10607 v -0.10607 -0.10608 h 0.10607 0.10608 v 0.10608 0.10607 z m -0.4243,-0.21215 h -0.10607 v -0.10607 -0.10608 h 0.10607 0.10608 v 0.10608 0.10607 z m -0.42429,-0.21215 h -0.10608 v -0.10607 -0.10607 h 0.10608 0.10607 v 0.10607 0.10607 z m -0.4243,-0.21214 h -0.10608 v -0.10608 -0.10607 h 0.10608 0.10607 v 0.10607 0.10608 z m -0.4243,-0.21215 h -0.10607 v -0.10608 -0.10607 h 0.10607 0.10608 v 0.10607 0.10608 z m -0.4243,-0.21215 h -0.10607 v -0.10608 -0.10607 h 0.10607 0.10608 v 0.10607 0.10608 z m -0.42429,-0.21215 h -0.10608 v -0.10608 -0.10607 h 0.10608 0.10607 v 0.10607 0.10608 z m -0.4243,-0.21865 h -0.21215 l -0.31822,-0.20565 -0.31823,-0.20565 h 0.21215 0.21215 l 0.31822,0.20565 0.31823,0.20565 z m -1.06075,-0.4178 h -0.10607 v -0.10607 -0.10608 h 0.10607 0.10608 v 0.10608 0.10607 z m -0.42429,-0.21215 h -0.10608 v -0.10607 -0.10608 h 0.10608 0.10607 v 0.10608 0.10607 z m 3.44742,-0.008 -0.26519,-0.008 -0.74252,-0.30848 -0.74252,-0.30847 -1.94721,-2.06675 -1.9472,-2.06675 0.22789,-0.14085 0.22789,-0.14084 -0.14956,-0.39267 -0.14956,-0.39267 0.26715,0.26518 0.26715,0.26519 h 0.29675 0.29675 l 0.56947,0.58341 0.56947,0.58341 0.66838,0.35331 0.66838,0.35331 0.77776,1.17139 0.77776,1.17139 0.66833,0.25515 0.66833,0.25516 -0.37126,0.092 -0.37126,0.092 v 0.1966 0.19659 l -0.26518,-0.008 z m -3.9778,-0.20386 h -0.28286 l 0.14143,-0.14143 0.14143,-0.14143 0.14144,0.14143 0.14143,0.14143 z m -0.53037,-0.21214 h -0.10607 v -0.10608 -0.10607 h 0.10607 0.10608 v 0.10607 0.10608 z m -0.53037,-0.21215 h -0.28287 l 0.14144,-0.14144 0.14143,-0.14143 0.14143,0.14143 0.14143,0.14144 z m 6.78876,0 h -0.28286 l 0.14143,-0.14144 0.14143,-0.14143 0.14144,0.14143 0.14143,0.14144 z m -7.31913,-0.21215 h -0.10608 v -0.10608 -0.10607 h 0.10608 0.10607 v 0.10607 0.10608 z m -0.53038,-0.21249 h -0.28286 l 0.14143,-0.14143 0.14143,-0.14144 0.14144,0.14144 0.14143,0.14143 z m -0.53037,-0.21215 h -0.10607 v -0.10607 -0.10608 h 0.10607 0.10608 v 0.10608 0.10607 z m -0.53037,-0.21215 h -0.282865 l 0.14143,-0.14143 0.141435,-0.14143 0.14143,0.14143 0.14143,0.14143 z m -0.636455,-0.21215 h -0.28286 l 0.14143,-0.14143 0.14143,-0.14143 0.14144,0.14143 0.14143,0.14143 z m -0.63644,-0.21215 h -0.28287 l 0.14143,-0.14143 0.14144,-0.14143 0.14143,0.14143 0.14143,0.14143 z m -0.63645,-0.21215 h -0.28286 l 0.14143,-0.14143 0.14143,-0.14143 0.14143,0.14143 0.14143,0.14143 z m -0.53037,-0.21864 h -0.21215 l -0.31822,-0.20565 -0.31823,-0.20565 h 0.21215 0.21215 l 0.31822,0.20565 0.31823,0.20565 z m -1.29057,-0.43455 -0.40662,-0.0167 0.27844,-0.11142 0.27845,-0.11143 0.12817,0.12817 0.12817,0.12818 -0.40661,-0.0167 z m -0.72485,-0.1954 h -0.28286 l 0.14143,-0.14143 0.14143,-0.14144 0.14144,0.14144 0.14143,0.14143 z m -0.63644,-0.21215 h -0.28287 l 0.14143,-0.14143 0.14144,-0.14143 0.14143,0.14143 0.14143,0.14143 z m -0.7602,-0.2289 -0.40662,-0.0167 0.27844,-0.11142 0.27845,-0.11143 0.12817,0.12818 0.12817,0.12817 -0.40661,-0.0167 z m 31.796125,-0.10296 -0.38041,0.14485 0.26165,-0.26361 0.26165,-0.26362 0.11876,0.11877 0.11876,0.11875 z m -32.520975,-0.12226 h -0.31822 l -0.4243,-0.18233 -0.42429,-0.18232 h 0.31822 0.31822 l 0.4243,0.18232 0.4243,0.18233 z m 33.201315,-0.18882 h -0.21215 l 0.31822,-0.20566 0.31822,-0.20565 h 0.21215 0.21215 l -0.31822,0.20565 -0.31823,0.20566 z m -34.810105,-0.2224 -0.40662,-0.0167 0.27845,-0.11143 0.27844,-0.11142 0.12817,0.12817 0.12818,0.12817 -0.40662,-0.0167 z m -0.8486,-0.21215 -0.40662,-0.0167 0.27845,-0.11143 0.27845,-0.11142 0.12817,0.12817 0.12817,0.12817 -0.40662,-0.0167 z m 36.825515,0.0168 h -0.28286 l 0.14143,-0.14144 0.14143,-0.14143 0.14144,0.14143 0.14143,0.14144 z m -37.886255,-0.2289 -0.40662,-0.0167 0.27845,-0.11143 0.27844,-0.11142 0.12817,0.12817 0.12818,0.12818 -0.40662,-0.0167 z m 38.522705,0.0168 h -0.28286 l 0.14143,-0.14144 0.14143,-0.14143 0.14143,0.14143 0.14144,0.14144 z m -39.371305,-0.2289 -0.40662,-0.0167 0.27845,-0.11142 0.27845,-0.11143 0.12817,0.12817 0.12817,0.12818 -0.40662,-0.0167 z m 40.219905,0.0168 h -0.28287 l 0.14143,-0.14144 0.14144,-0.14143 0.14143,0.14143 0.14143,0.14144 z m -41.280645,-0.2289 -0.40662,-0.0167 0.27845,-0.11142 0.27844,-0.11143 0.12817,0.12817 0.12818,0.12818 -0.40662,-0.0167 z m 42.217635,0 -0.40662,-0.0167 0.27844,-0.11142 0.27845,-0.11143 0.12817,0.12817 0.12818,0.12818 -0.40662,-0.0167 z m -43.366775,-0.2289 h -0.53037 l 0.26518,-0.107 0.26519,-0.10701 0.26519,0.10701 0.26518,0.107 z m 44.551275,0 h -0.53038 l 0.26519,-0.107 0.26519,-0.10701 0.26518,0.10701 0.26519,0.107 z m -45.718095,-0.22001 -0.63645,-0.008 0.3753,-0.0978 0.3753,-0.0978 0.26115,0.10566 0.26115,0.10566 -0.63645,-0.008 z m 46.990985,0.008 h -0.53037 l 0.26518,-0.107 0.26519,-0.10701 0.26519,0.10701 0.26518,0.107 z m -48.263875,-0.22001 -0.63645,-0.008 0.3753,-0.0978 0.3753,-0.0978 0.26114,0.10566 0.26115,0.10566 -0.63644,-0.008 z m 16.335465,0.0414 h -0.10607 v -0.10607 -0.10608 h 0.10607 0.10608 v 0.10608 0.10607 z m 33.6256,-0.0492 h -0.74252 l 0.37126,-0.097 0.37126,-0.097 0.37126,0.097 0.37126,0.097 z m -70.515085,-0.3204 -1.03631,0.11146 0.29379,-0.18606 0.2938,-0.18607 0.83091,-0.003 0.83092,-0.003 -0.0884,0.0779 -0.0884,0.0778 -1.03632,0.11147 z m 19.06897,0.11577 -0.63644,-0.008 0.3753,-0.0978 0.37529,-0.0978 0.26115,0.10565 0.26115,0.10567 -0.63645,-0.008 z m 53.567605,-0.0164 h -0.95467 l 0.47733,-0.0919 0.47734,-0.0919 0.47733,0.0919 0.47734,0.0919 z m -55.264795,-0.20786 -0.84859,-0.004 0.47981,-0.0923 0.47981,-0.0923 0.36878,0.0966 0.36879,0.0965 -0.8486,-0.004 z m 57.704505,0 -0.84859,-0.004 0.4798,-0.0923 0.47981,-0.0923 0.36879,0.0966 0.36879,0.0965 -0.8486,-0.004 z m -72.660995,-0.22223 h -1.16682 l 0.58341,-0.0884 0.58341,-0.0884 0.58341,0.0884 0.58341,0.0884 z m 12.72893,0 h -1.16682 l 0.58341,-0.0884 0.58341,-0.0884 0.58341,0.0884 0.58341,0.0884 z m 62.159625,0.0144 h -0.74252 l 0.37126,-0.097 0.37126,-0.097 0.37127,0.097 0.37126,0.097 z m -68.630165,-0.2539 -4.87943,-2.1e-4 2.50472,-0.0673 2.50472,-0.0673 2.37471,0.0676 2.3747,0.0676 -4.87942,-2.1e-4 z m 70.645585,0.0496 -0.63645,-0.008 0.3753,-0.0978 0.3753,-0.0978 0.26115,0.10566 0.26115,0.10566 -0.63645,-0.008 z m 1.37897,-0.20429 h -0.53038 l 0.26519,-0.10701 0.26519,-0.107 0.26518,0.107 0.26519,0.10701 z m 0.95467,-0.17867 h -0.10608 v -0.10608 -0.10607 h 0.10608 0.10607 v 0.10607 0.10608 z m -79.661915,-3.61523 -0.31822,-0.009 0.93595,-0.84613 0.93594,-0.84614 0.23087,0.0837 0.23087,0.0836 0.37126,-0.19094 0.37126,-0.19095 v 0.0968 0.0968 l -1.21985,0.86537 -1.21985,0.86537 -0.31823,-0.009 z m 29.91299,-0.62775 h -0.28286 l 0.14143,-0.14143 0.14143,-0.14143 0.14144,0.14143 0.14143,0.14143 z m -26.83683,-1.27289 h -0.10608 v -0.10608 -0.10607 h 0.10608 0.10607 v 0.10607 0.10608 z m 25.89468,0 h -0.0936 l -0.15137,-0.24493 -0.15137,-0.24493 0.24492,0.15138 0.24493,0.15137 v 0.0936 0.0936 z m 45.175205,-0.21215 h -0.10608 v -0.10608 -0.10607 h 0.10608 0.10607 v 0.10607 0.10608 z m -0.8486,-0.63645 h -0.10607 v -0.10607 -0.10608 h 0.10607 0.10607 v 0.10608 0.10607 z m -0.8486,-0.63644 h -0.10607 v -0.10608 -0.10607 h 0.10607 0.10608 v 0.10607 0.10608 z m -59.389165,-0.21215 h -0.0936 l -0.15138,-0.24493 -0.15137,-0.24493 0.24493,0.15138 0.24493,0.15137 v 0.0935 0.0936 z m -1.49757,-0.25351 -0.63644,-0.008 0.37529,-0.0978 0.3753,-0.0978 0.26115,0.10566 0.26115,0.10566 -0.63645,-0.008 z m 60.250295,0.0414 h -0.10608 v -0.10608 -0.10607 h 0.10608 0.10607 v 0.10607 0.10608 z m -60.568515,-0.4243 h -0.28286 l 0.14143,-0.14143 0.14143,-0.14143 0.14143,0.14143 0.14143,0.14143 z m 59.932065,0 h -0.10607 v -0.10607 -0.10608 h 0.10607 0.10608 v 0.10608 0.10607 z m -0.4243,-0.21215 h -0.10607 v -0.10607 -0.10608 h 0.10607 0.10608 v 0.10608 0.10607 z m -56.802865,-0.22706 -0.053,-0.0149 -0.4243,-0.18233 -0.4243,-0.18233 0.47734,-0.0149 0.47733,-0.0149 v 0.21214 0.21215 l -0.053,-0.0149 z m 56.166425,-0.19724 h -0.10608 v -0.10607 -0.10607 h 0.10608 0.10607 v 0.10607 0.10607 z m -33.68243,-0.21214 h -0.0568 l -0.73873,-0.49585 -0.73873,-0.49584 -0.71463,-0.24441 -0.714635,-0.24441 -0.51377,0.12895 -0.51378,0.12895 -0.43774,-0.39615 -0.43773,-0.39614 -0.53008,-0.90451 -0.53008,-0.90451 0.14208,-0.36864 0.14209,-0.36865 0.56909,0.66809 0.5691,0.66808 0.53037,0.2546 0.53037,0.2546 1.750235,1.18421 1.75023,1.18421 v 0.17371 0.17371 z m -3.497755,-1.48505 h 0.21215 l -0.2641,-0.31822 -0.26411,-0.31822 h -0.21214 -0.21215 l 0.2641,0.31822 0.2641,0.31822 z m 36.755885,1.48505 h -0.10608 v -0.10608 -0.10607 h 0.10608 0.10607 v 0.10607 0.10608 z m -57.957165,-0.21683 -0.17164,-0.005 -1.12509,-0.65581 -1.1251,-0.65581 0.0963,-0.0963 0.0963,-0.0963 1.06683,0.5406 1.06682,0.5406 0.13361,0.21618 0.13361,0.21619 -0.17163,-0.005 z m 36.989785,-0.066 -0.14144,0.14143 v -0.28286 -0.28287 l 0.14144,0.14143 0.14143,0.14144 z m 20.54308,0.0707 h -0.10607 v -0.10608 -0.10607 h 0.10607 0.10608 v 0.10607 0.10608 z m -0.4243,-0.21215 h -0.10607 v -0.10608 -0.10607 h 0.10607 0.10608 v 0.10607 0.10608 z m -0.42429,-0.21215 h -0.10608 v -0.10608 -0.10607 h 0.10608 0.10607 v 0.10607 0.10608 z m -0.4243,-0.21215 h -0.10608 v -0.10607 -0.10608 h 0.10608 0.10607 v 0.10608 0.10607 z m -31.80804,-0.21215 h -0.30392 l -0.13975,-0.44028 -0.13974,-0.44029 0.14279,-0.14279 0.14279,-0.14279 0.30088,0.41147 0.30088,0.41148 v 0.1716 0.1716 z m 31.38374,0 h -0.10607 v -0.10607 -0.10608 h 0.10607 0.10607 v 0.10608 0.10607 z m -0.4243,-0.21215 h -0.10607 v -0.10607 -0.10608 h 0.10607 0.10608 v 0.10608 0.10607 z m -0.53037,-0.21215 h -0.28286 l 0.14143,-0.14143 0.14143,-0.14143 0.14143,0.14143 0.14143,0.14143 z m -0.53037,-0.21215 h -0.10608 v -0.10607 -0.10607 h 0.10608 0.10607 v 0.10607 0.10607 z m -0.63645,-0.21214 h -0.10607 v -0.10608 -0.10607 h 0.10607 0.10608 v 0.10607 0.10608 z m -0.53037,-0.21215 h -0.28287 l 0.14144,-0.14144 0.14143,-0.14143 0.14143,0.14143 0.14143,0.14144 z m -56.313015,-0.21215 h -0.0936 l -0.15137,-0.24493 -0.15138,-0.24493 0.24493,0.15138 0.24493,0.15137 v 0.0935 0.0936 z m 55.676565,0 h -0.28286 l 0.14143,-0.14144 0.14143,-0.14143 0.14144,0.14143 0.14143,0.14144 z m -0.63644,-0.21215 h -0.28287 l 0.14143,-0.14143 0.14144,-0.14144 0.14143,0.14144 0.14143,0.14143 z m -0.8486,-0.21215 h -0.28286 l 0.14143,-0.14143 0.14143,-0.14143 0.14143,0.14143 0.14143,0.14143 z m -34.049905,-0.21215 h -0.10607 v -0.10607 -0.10608 h 0.10607 0.10608 v 0.10608 0.10607 z m 33.413455,0 h -0.28286 l 0.14143,-0.14143 0.14143,-0.14143 0.14144,0.14143 0.14143,0.14143 z m -54.204045,-0.21215 h -0.10607 v -0.10607 -0.10608 h 0.10607 0.10608 v 0.10608 0.10607 z m 53.143305,0 h -0.28287 l 0.14144,-0.14143 0.14143,-0.14143 0.14143,0.14143 0.14143,0.14143 z m -1.1845,-0.2289 -0.40662,-0.0167 0.27845,-0.11143 0.27844,-0.11142 0.12818,0.12817 0.12817,0.12817 -0.40662,-0.0167 z m -51.958805,-0.61969 h -0.10607 v -0.10608 -0.10607 h 0.10607 0.10608 v 0.10607 0.10608 z m 0.67181,-0.91931 -0.14144,0.14143 v -0.28287 -0.28286 l 0.14144,0.14143 0.14143,0.14143 z m 43.638425,-5.14824 -1.88045,0.11082 2.12149,-0.30582 2.12149,-0.30581 1.48504,-0.44707 1.48504,-0.44707 1.73069,-0.80703 1.73069,-0.80704 1.45155,-0.94845 1.45154,-0.94844 1.64077,-1.4115 1.64077,-1.41149 1.40681,-1.64077 1.4068,-1.64077 1.21003,-1.80326 1.21004,-1.80327 0.65681,-1.16682 0.65681,-1.16682 0.73642,-1.80326 0.73642,-1.80327 0.36435,-1.69719 0.36436,-1.69719 0.49973,-1.69719 0.49974,-1.69719 1.2079,-1.90179 1.2079,-1.90179 0.59916,-1.28045 0.59915,-1.280442 0.437,-1.697191 0.43699,-1.697191 0.1285,-2.345747 0.12849,-2.345747 -0.36203,-2.165079 -0.36202,-2.165077 -0.49367,-1.429344 -0.49366,-1.429343 -0.4453,-1.020258 -0.44531,-1.020257 -0.98472,-1.525529 -0.98472,-1.525529 -2.58456,-2.651861 -2.58457,-2.651861 -2.52012,-2.970084 -2.52013,-2.970084 -1.91692,-2.015414 -1.91693,-2.015415 1.7653,1.697191 1.76529,1.697191 2.76139,3.247026 2.7614,3.247025 2.61092,2.637579 2.61092,2.63758 0.94754,1.434531 0.94754,1.434532 0.52917,1.060744 0.52917,1.060744 0.54449,1.516952 0.5445,1.516953 0.3304,1.741753 0.33041,1.741755 -0.004,2.575388 -0.004,2.575388 -0.31399,1.482318 -0.31398,1.48232 -0.43541,1.308398 -0.43541,1.308395 -1.39086,2.16552 -1.39085,2.16552 -0.41345,0.93466 -0.41344,0.93466 -0.60476,2.80721 -0.60475,2.80721 -0.46031,1.16682 -0.4603,1.16682 -1.06456,2.03967 -1.06455,2.03967 -1.69354,2.28091 -1.69354,2.28092 -1.92035,1.89131 -1.92035,1.89131 -2.05477,1.36791 -2.05477,1.36792 -1.65858,0.76631 -1.65857,0.76631 -1.96345,0.49807 -1.96345,0.49807 -1.88045,0.11082 z m -23.507125,-4.32775 h -0.0936 l -0.15137,-0.24493 -0.15137,-0.24492 0.24493,0.15137 0.24492,0.15137 v 0.0936 0.0936 z m 21.414525,0 h -0.10607 v -0.10617 -0.10608 h 0.10607 0.10608 v 0.10608 0.10607 z m 0.18711,-0.4243 h -0.10607 l 0.13111,-0.21215 0.13111,-0.21214 h 0.10608 0.10607 l -0.13111,0.21214 -0.13112,0.21215 z m -9.70785,-0.21215 h -0.0801 l -0.29116,-0.37126 -0.29117,-0.37126 0.37127,0.29117 0.37126,0.29116 v 0.0801 0.0801 z m 4.16576,-0.85748 -0.16091,-0.009 -0.73462,-0.39116 -0.73462,-0.39116 0.36769,-0.0773 0.3677,-0.0773 -0.53893,-0.79052 -0.53894,-0.79052 0.32245,0.12373 0.32245,0.12374 v -0.28928 -0.28929 l -0.18838,-0.65683 -0.18837,-0.65684 1.14304,-0.36031 1.14305,-0.36031 v -0.30739 -0.30738 h -0.16051 -0.16051 l -0.73886,0.2119 -0.73887,0.21191 -1.69945,0.21451 -1.69945,0.21452 -2.61621,-0.25811 -2.61622,-0.2581 -0.56602,-0.71496 -0.566015,-0.71496 -0.65286,-0.67321 -0.65285,-0.67321 -1.00278,-0.58239 -1.00278,-0.5824 -0.4394,-0.99334 -0.43941,-0.99334 0.1399,-2.66724 0.1399,-2.66725 0.12264,-0.8997 0.12263,-0.8997 0.50657,0.12714 0.50658,0.12715 v -0.34578 -0.34577 l -0.47734,-0.19034 -0.47733,-0.19034 -0.40163,-0.12833 -0.40163,-0.12832 0.12071,-0.12071 0.12071,-0.12071 1.16217,0.33785 1.16216,0.33785 h 0.62491 0.62491 l 0.933555,-0.63258 0.93356,-0.63259 0.26519,-0.004 0.26518,-0.004 -0.007,0.15911 -0.007,0.15911 -0.97478,0.59195 -0.974795,0.59194 0.0923,0.0924 0.0923,0.0923 1.112525,-0.13176 1.11252,-0.13176 0.90257,-0.94183 0.90257,-0.94182 0.58784,0.0711 0.58785,0.0711 -0.5015,0.74252 -0.50149,0.74253 -0.70404,0.33401 -0.70404,0.33401 -0.81797,0.88584 -0.81796,0.88585 h -0.2448 -0.24539 l 0.10139,-0.53038 0.10138,-0.53037 h -0.13967 -0.13968 l -0.763085,0.79556 -0.76308,0.79556 -0.42224,0.84859 -0.42224,0.8486 -0.22251,1.16682 -0.22252,1.16682 -0.13561,1.02339 -0.13561,1.02338 0.41676,-0.22304 0.41677,-0.22305 0.55325,-0.65751 0.55326,-0.6575 v -0.30195 -0.30195 l 0.37126,-0.008 0.371265,-0.008 0.8486,-0.74747 0.84859,-0.74747 1.37897,-1.12545 1.37897,-1.12545 0.48432,-0.25181 0.48433,-0.2518 0.73881,0.26715 0.73881,0.26716 0.61286,-0.36203 0.61286,-0.36202 h 0.52477 0.52477 l 0.79136,-0.33065 0.79136,-0.33066 0.0904,0.0904 0.0904,0.0904 -1.27832,0.82364 -1.27833,0.82362 -0.002,0.15912 -0.002,0.15911 0.47734,-0.004 0.47733,-0.004 1.43059,-0.50491 1.43058,-0.50491 0.911,-0.53388 0.91099,-0.53387 0.52243,-0.45657 0.52243,-0.45657 -0.63644,0.1273 -0.63645,0.12731 0.31822,-0.21118 0.31823,-0.21117 1.59111,0.12814 1.59112,0.12813 1.48504,1.18988 1.48504,1.18988 0.15226,0.23459 0.15225,0.2346 1.14024,0.87968 1.14023,0.87969 h 0.3442 0.3442 l 0.22708,0.42429 0.22708,0.4243 h -0.17427 -0.17426 l -1.25676,-0.48679 -1.25675,-0.4868 -0.55161,-0.94521 -0.55161,-0.94521 -0.42321,-0.0624 -0.42322,-0.0624 -0.41259,0.45591 -0.4126,0.45591 0.004,1.9401 0.004,1.94011 0.50572,1.27289 0.50573,1.27289 1.02829,1.04378 1.0283,1.04377 v 0.0498 0.0498 l -0.87007,-0.1167 -0.87007,-0.1167 -0.18743,0.296 -0.18742,0.296 -0.003,-0.47734 -0.003,-0.47732 h -0.21881 -0.21881 l -0.11311,0.29477 -0.11312,0.29478 -0.4106,-0.10737 -0.41059,-0.10737 v 0.23689 0.23689 h -0.75884 -0.75885 l 0.6228,0.62279 0.62279,0.62279 0.12951,0.79808 0.12951,0.79807 -0.0857,0.0857 -0.0857,0.0857 -1.33976,-0.8151 -1.33975,-0.81509 -0.16966,-0.26718 -0.16965,-0.26718 h -0.63644 -0.63644 l -0.57338,0.2965 -0.57337,0.2965 -0.40296,0.44527 -0.40296,0.44527 -0.3162,-0.26242 -0.31621,-0.26242 0.13872,1.48302 0.13871,1.48303 -0.29276,-0.63645 -0.29277,-0.63644 -0.16394,0.82932 -0.16393,0.82933 0.24389,0.39053 0.24389,0.39053 -0.16091,-0.009 z m -0.77466,-2.96119 h 0.29553 v -0.17161 -0.1716 l -0.28584,-0.39091 -0.28584,-0.39091 -0.13915,0.22515 -0.13915,0.22514 0.12946,0.33737 0.12947,0.33737 z m 7.34948,-0.85973 0.15911,0.0111 v -0.197 -0.19699 l -0.33338,-0.33338 -0.33337,-0.33337 h -0.30307 -0.30307 v 0.18627 0.18627 l 0.47733,0.33297 0.47734,0.33298 0.15911,0.0111 z m -4.28353,-1.27668 0.33071,0.0149 0.39091,-0.28584 0.39091,-0.28584 -0.23992,-0.14828 -0.23992,-0.14828 -0.87861,0.26323 -0.87861,0.26324 0.39691,0.15597 0.39691,0.15598 0.33071,0.0149 z m -7.4377,-1.56905 1.16682,-0.0707 1.90934,-0.35555 1.90934,-0.35555 1.02667,-0.55834 1.02666,-0.55833 1.0754,-1.17583 1.07541,-1.17582 0.37813,-0.84346 0.37813,-0.84347 -0.0754,-0.0754 -0.0754,-0.0754 -0.4955,0.25684 -0.49551,0.25684 -2.50303,1.57665 -2.50303,1.57666 -0.86499,0.30518 -0.86498,0.30518 h -1.68482 -1.68482 l 0.1416,-0.47733 0.14159,-0.47734 0.54067,-0.7994 0.54066,-0.7994 -0.0845,-0.0778 -0.0846,-0.0778 -1.37897,0.18987 -1.37897,0.18988 -0.24889,0.33433 -0.24888,0.33432 0.12141,0.74815 0.1214,0.74814 -0.9863,-0.0784 -0.9863,-0.0785 v 0.16811 0.1681 l 0.32856,0.50146 0.32857,0.50145 0.59604,0.24689 0.59605,0.24689 1.03777,0.18476 1.03776,0.18475 z m 9.56016,0.0989 h 0.17365 l 0.13748,-0.22245 0.13748,-0.22245 0.3223,0.26748 0.32229,0.26748 0.29527,-0.4038 0.29526,-0.4038 v -0.26228 -0.26227 l -0.57427,-0.45173 -0.57428,-0.45172 -0.15301,0.41362 -0.15301,0.41363 -0.47331,0.33152 -0.47332,0.33152 0.27191,0.32763 0.27191,0.32762 z m 2.63351,-1.06074 h 0.31333 l 0.31848,-0.48606 0.31848,-0.48606 -0.24318,-1.30768 -0.24319,-1.30768 -0.16422,0.1015 -0.16422,0.10149 -0.14433,0.96245 -0.14432,0.96244 -0.28899,-0.11089 -0.289,-0.1109 -0.20792,0.3885 -0.20792,0.38851 0.13213,0.13212 0.13213,0.13213 0.2847,-0.23628 0.28471,-0.23629 v 0.55635 0.55635 z m -18.611175,-0.64494 0.26518,0.008 v -0.14544 -0.14543 l -0.46127,-0.49101 -0.46128,-0.49101 h -0.38732 -0.38732 v 0.31145 0.31145 l 0.58341,0.3165 0.58341,0.3165 0.26519,0.008 z m 14.041405,-5.29523 h 0.18166 l 0.6331,-0.72107 0.63311,-0.72106 -0.10549,-0.55183 -0.10549,-0.55183 h -0.57883 -0.57884 l -0.38451,0.42488 -0.38451,0.42488 0.25407,0.84802 0.25407,0.84801 z m -1.7898,12.72893 h -0.10608 v -0.10607 -0.10607 h 0.10608 0.10607 v 0.10607 0.10607 z m 0.63644,0 h -0.10607 v -0.10607 -0.10607 h 0.10607 0.10608 v 0.10607 0.10607 z m 6.83636,-0.21349 -0.16456,0.001 0.32912,-0.63645 0.32912,-0.63645 h 0.19683 0.19683 l -0.36139,0.63511 -0.36139,0.6351 -0.16456,0.001 z m -11.42462,-1.50453 -0.29116,-0.0208 -0.95467,-0.26852 -0.95467,-0.26852 0.31822,-0.11842 0.31822,-0.11842 0.81645,-0.13614 0.81644,-0.13613 -0.14522,0.23497 -0.14523,0.23498 0.25639,0.30893 0.25639,0.30893 -0.29116,-0.0208 z m 13.02118,-1.04535 -0.68948,1.15349 v -0.10853 -0.10853 l 0.62613,-1.68535 0.62613,-1.68535 0.0103,0.47733 0.0103,0.47734 h 0.11514 0.11513 l 1.17064,-0.8648 1.17063,-0.8648 0.1159,-0.30202 0.11589,-0.30202 h 0.43754 0.43755 l -1.78618,1.32987 -1.78616,1.32988 -0.68949,1.15349 z m -16.28243,-0.249 h -0.63644 l -0.53038,-0.16986 -0.53037,-0.16985 h 0.63645 0.63645 l 0.53037,0.16985 0.53037,0.16986 z m -28.109725,-3.38559 h -0.53038 l 0.26519,-0.107 0.26519,-0.10701 0.26518,0.10701 0.26519,0.107 z m 46.766305,-1.45154 h -0.0935 v -0.33075 -0.33074 l 0.21561,0.13325 0.21561,0.13326 -0.12206,0.19749 -0.12205,0.19749 z m -0.51785,-0.63645 h -0.28286 l 0.14143,-0.14143 0.14143,-0.14144 0.14144,0.14144 0.14143,0.14143 z m -72.024545,-1.27289 h -0.10608 v -0.10608 -0.10607 h 0.10608 0.10607 v 0.10607 0.10608 z m -0.63645,-3.39439 h -0.10608 v -0.10607 -0.10608 h 0.10608 0.10607 v 0.10608 0.10607 z m 73.832045,-0.46388 -0.10031,0.10032 -0.0878,-0.29556 -0.0877,-0.29555 -0.24541,-1.45741 -0.24541,-1.45742 0.085,-0.085 0.085,-0.085 0.34851,1.73762 0.34852,1.73761 z m -23.577795,-1.65761 h -0.10608 l 0.131125,-0.21214 0.13111,-0.21215 h 0.10607 0.10608 l -0.13112,0.21215 -0.13111,0.21214 z m -49.38081,-2.22756 -0.29134,1.69719 -0.0259,-0.61907 -0.0259,-0.61906 0.25269,-1.39635 0.25269,-1.39635 0.0645,0.31823 0.0645,0.31822 z m 52.375935,1.37897 h -0.10607 v -0.10608 -0.10607 h 0.10607 0.10607 v 0.10607 0.10608 z M 54.830285,104.729 h -0.31822 v -0.1716 -0.1716 l 0.31148,-0.41181 0.31147,-0.41181 0.007,0.58341 0.007,0.58341 h -0.31822 z m 57.333245,-0.43386 -0.79556,0.01 v -0.19962 -0.19963 l 0.15911,-0.0891 0.15911,-0.0891 0.63645,0.27913 0.63645,0.27914 -0.79556,0.01 z m 1.20218,-0.007 -0.40662,-0.0167 0.27844,-0.11143 0.27845,-0.11142 0.12817,0.12817 0.12817,0.12817 -0.40661,-0.0168 z m -38.988835,-0.61968 h -0.10607 l -0.45319,-0.63645 -0.45319,-0.63645 h 0.10607 0.10608 l 0.45319,0.63645 0.45319,0.63645 z m 48.363165,-0.0575 -0.12818,0.12817 0.0167,-0.40661 0.0167,-0.40662 0.11142,0.27844 0.11143,0.27845 -0.12817,0.12817 z m -2.62093,-0.15855 -0.15911,-0.004 -0.93356,-0.63259 -0.93355,-0.63259 h -0.49845 -0.49845 v -0.21215 -0.21214 h 0.55499 0.55499 l 1.03612,0.76059 1.03613,0.76058 v 0.088 0.088 l -0.15911,-0.004 z m -13.94879,-0.20829 h -0.10607 v -0.10607 -0.10608 h 0.10607 0.10608 v 0.10608 0.10607 z m 0.18711,-0.4243 h -0.10607 l 0.13111,-0.21215 0.13112,-0.21215 h 0.10607 0.10608 l -0.13112,0.21215 -0.13111,0.21215 z m 3.89855,-0.12192 -0.36947,0.16594 -0.10787,-0.34023 -0.10786,-0.34023 -0.1084,-0.34163 -0.1084,-0.34164 -0.75413,0.57521 -0.75413,0.5752 -0.12833,-0.12833 -0.12834,-0.12834 0.46049,-0.49017 0.4605,-0.49017 v -0.14544 -0.14544 h -1.30089 -1.30089 l -0.70358,-0.43483 -0.70357,-0.43483 -0.15343,-0.4668 -0.15343,-0.4668 0.0561,-0.84427 0.0561,-0.84427 0.27888,-0.5347 0.27888,-0.5347 0.70409,-0.41164 0.7041,-0.41164 -0.68449,0.93077 -0.6845,0.93076 v 0.44736 0.44737 l 0.52943,0.7176 0.52942,0.71759 0.26614,0.16897 0.26613,0.16897 0.46946,0.003 0.46946,0.003 0.86747,-0.90163 0.86748,-0.90164 0.89063,0.99594 0.89063,0.99595 0.74252,0.43527 0.74252,0.43527 0.29675,8.5e-4 0.29675,8.4e-4 1.14636,-0.94374 1.14636,-0.94376 0.30088,0.11546 0.30088,0.11546 0.56522,-0.4446 0.56522,-0.4446 h 0.78361 0.78362 l 0.95412,0.63198 0.95413,0.63199 0.40818,0.45975 0.40817,0.45976 -0.21215,-0.0908 -0.21214,-0.0908 -0.58341,-0.29243 -0.58341,-0.29244 v -0.25195 -0.25195 l -0.84111,-0.37928 -0.8411,-0.37929 -0.60567,0.25088 -0.60566,0.25087 -1.33055,1.58206 -1.33054,1.58205 -0.51157,0.1284 -0.51157,0.12839 -0.79498,-0.1408 -0.79499,-0.1408 -0.53037,-0.0263 -0.53037,-0.0263 -0.36947,0.16595 z m 3.71082,-0.51715 0.26518,-0.003 0.47929,-0.7399 0.47928,-0.73989 h -0.41422 -0.41421 l -0.33026,0.4715 -0.33025,0.4715 v 0.27102 0.27102 l 0.26519,-0.003 z m 7.05395,0.21477 h -0.10608 v -0.10607 -0.10607 h 0.10608 0.10607 v 0.10607 0.10607 z m -47.702645,-0.21214 h -0.085 l -0.20509,-0.26519 -0.20509,-0.26519 -0.15163,-0.26518 -0.15163,-0.26519 h 0.0942 0.0942 l 0.34752,0.53037 0.34751,0.53038 z m 29.491755,-0.4243 h -0.15089 l 0.32912,-0.63645 0.32912,-0.63645 h 0.31278 0.31277 v 0.17517 0.17517 l -0.49101,0.46128 -0.49101,0.46128 z m -51.763825,-0.58341 -0.10701,0.26518 v -0.53037 -0.53037 l 0.10701,0.26519 0.10701,0.26518 z m 66.156035,-0.26519 h -0.10608 v -0.10607 -0.10608 h 0.10608 0.10607 v 0.10608 0.10607 z m 0,-3.60653 h -0.10608 V 97.19787 97.0918 h 0.10608 0.10607 v 0.10607 0.10608 z m -65.088815,-1.37897 -0.20943,0.21215 0.1373,-0.38861 0.1373,-0.38861 v -0.300878 -0.300871 h 0.2418 0.2418 l 0.30682,-0.371261 0.30682,-0.371261 -0.4765,0.848596 -0.47649,0.848595 z m 0.52739,-1.803266 -0.31746,0.318223 0.59827,-1.060744 0.59827,-1.060745 1.55003,-2.386744 1.55004,-2.386747 2.43842,-2.666988 2.43843,-2.666987 0.55577,-1.135951 0.55576,-1.135949 -0.006,-1.275201 -0.006,-1.275202 -0.44892,-0.879961 -0.44892,-0.879962 -1.45686,-2.325498 -1.45685,-2.325499 -0.12933,-0.573547 -0.12933,-0.573544 -0.787,-1.097552 -0.78699,-1.097551 -2.02938,-2.615055 -2.02938,-2.615053 -0.37685,-0.576014 -0.37685,-0.576016 -0.11243,-1.651547 -0.11243,-1.651549 0.34414,-0.821466 0.34413,-0.821468 V 55.894852 55.48231 l 0.58341,-0.769481 0.58341,-0.769479 -0.37126,0.140529 -0.37126,0.14053 V 54.01138 53.79835 l 0.90463,-0.387774 0.90464,-0.387772 0.29649,-0.357252 0.2965,-0.357251 0.14816,0.239741 0.14817,0.239739 1.56775,-1.394459 1.56775,-1.394458 0.0561,0.263128 0.0561,0.263128 -1.35575,1.433866 -1.35575,1.433865 -0.66277,0.231041 -0.66276,0.231043 v 0.191396 0.191394 h 0.63644 0.63645 v 0.305703 0.305704 l -0.21101,0.13041 -0.21101,0.13041 -0.2345,0.438168 -0.2345,0.43817 0.76373,-0.08916 0.76374,-0.08916 v 0.140378 0.140377 l -0.63681,0.801316 -0.63681,0.801316 -0.25146,0.839308 -0.25146,0.839305 -0.4907,0.186564 -0.4907,0.186564 v 0.200048 0.20005 l -0.13792,0.359424 -0.13793,0.359427 0.70017,-0.153778 0.70015,-0.153778 -0.16562,0.395112 -0.16562,0.395113 -0.10389,1.104646 -0.1039,1.104645 0.57405,0.979535 0.57405,0.979534 0.29421,-0.112901 0.29421,-0.112899 0.25234,0.842212 0.25233,0.842211 0.29462,0.244519 0.29463,0.244516 0.10455,-0.406148 0.10455,-0.406148 1.26014,1.202222 1.26014,1.20222 0.64148,0.140894 0.64148,0.140895 0.44893,1.043558 0.44893,1.04356 h 0.0939 0.0939 l 0.38125,-0.20404 0.38126,-0.204043 0.27029,-0.652549 0.2703,-0.65255 0.22098,0.07366 0.22098,0.07366 0.17439,0.305596 0.1744,0.305596 0.21219,0.597653 0.21218,0.597654 0.42518,-0.134946 0.42518,-0.134946 0.12772,0.332851 0.12773,0.332851 h 0.1554 0.1554 l 0.2462,-0.540354 0.2462,-0.540356 v -0.224863 -0.224865 l -0.37126,0.149126 -0.37126,0.149124 -0.26518,0.108418 -0.26519,0.108421 v -0.441692 -0.441692 l 0.60646,0.121292 0.60646,0.121292 0.47159,-0.763042 0.47158,-0.763042 h 0.0835 0.0835 l -0.21283,0.559795 -0.21283,0.559795 0.0923,0.09229 0.0923,0.0923 0.61955,-0.320388 0.61957,-0.320387 0.7478,-0.91511 0.74781,-0.915113 0.36606,-0.71089 0.36605,-0.710887 1.26732,-1.516676 1.26731,-1.516673 1.5008,-1.203546 1.5008,-1.203546 0.36948,-0.825264 0.36948,-0.825265 1.88443,-1.599539 1.88442,-1.599537 -0.057,-0.491982 -0.057,-0.491981 0.40445,0.366024 0.40445,0.366025 0.34203,-1.003799 0.34203,-1.0038 v -0.227394 -0.227394 l -0.68948,-0.03374 -0.68949,-0.03374 -1.23657,-0.269947 -1.23658,-0.269945 -0.19218,0.303689 -0.19218,0.303689 -0.003,-0.475538 -0.003,-0.475536 0.4243,-0.264978 0.4243,-0.264978 V 51.65104 51.500045 l -1.30909,-0.06316 -1.3091,-0.06316 -0.0834,-0.252742 -0.0834,-0.252741 0.64998,-0.336116 0.64998,-0.336116 v -0.221167 -0.220997 l -0.37126,0.110296 -0.37126,0.110296 -0.58341,0.139148 -0.58341,0.139149 v -0.447297 -0.447297 h -0.38987 -0.38976 l -1.25439,-0.889582 -1.25439,-0.889583 -0.15427,-0.224199 -0.15427,-0.224199 0.11553,-0.37126 0.11552,-0.371261 -0.12981,-0.40901 -0.12982,-0.409011 -0.57396,0.297357 -0.57397,0.297356 -0.74252,0.301222 -0.74252,0.301224 -1.78231,0.23408 -1.78231,0.234081 -0.2838,-0.235538 -0.28381,-0.235538 0.12178,-0.197051 0.12179,-0.197048 0.83055,-0.33232 0.83055,-0.332321 v -0.164371 -0.164371 l -0.46807,-0.122403 -0.46807,-0.122401 0.12602,-0.126019 0.12601,-0.126019 1.98621,-0.162529 1.98621,-0.162527 0.0707,0.174057 0.0707,0.174058 h 0.6909 0.69091 l 1.60246,0.409842 1.60247,0.40984 1.25091,0.631459 1.25091,0.631459 1.34601,0.264812 1.34601,0.264811 0.10229,0.391149 0.10229,0.39115 1.02956,0.365668 1.02956,0.365668 0.12935,0.588932 0.12935,0.588932 h 0.1953 0.19529 v -0.340921 -0.340921 l 0.26519,0.09787 0.26518,0.09787 1.08883,0.357887 1.08883,0.357886 0.39213,0.433289 0.39212,0.433289 -0.59968,-0.273231 -0.59968,-0.273231 -0.20233,0.361553 -0.20233,0.36155 h -0.41376 -0.41376 v 0.330744 0.330743 l 0.26519,-0.155062 0.26519,-0.155062 -0.37126,0.424434 -0.37126,0.424431 v 0.165406 0.165406 l 0.50609,-0.127024 0.5061,-0.127022 0.24947,0.30059 0.24947,0.300589 0.67643,-0.225518 0.67645,-0.225521 0.21037,-0.192029 0.21038,-0.192028 -0.31051,-0.191904 -0.3105,-0.191901 0.36885,-0.141542 0.36886,-0.141543 0.54334,0.103868 0.54335,0.103868 0.88512,-0.18968 0.88512,-0.189681 0.4243,-0.191434 0.42429,-0.191437 1.92339,-0.863022 1.92339,-0.863021 0.72847,-0.138451 0.72848,-0.138448 0.37067,-0.189421 0.37068,-0.18942 1.43259,-0.128912 1.432595,-0.128912 2.33364,-0.05801 2.33364,-0.05801 -1.713,0.190251 -1.71299,0.190251 -1.751425,0.507282 -1.75141,0.507279 -0.10219,-0.266308 -0.10219,-0.266308 -2.10973,0.804097 -2.10972,0.804097 -1.21852,0.684477 -1.21852,0.684475 -2.12148,1.384488 -2.12149,1.38449 -1.81092,1.822251 -1.81092,1.822248 -1.25003,1.90934 -1.25003,1.90934 -1.37516,1.803265 -1.37516,1.803266 -0.58326,1.272893 -0.58326,1.272893 0.19298,0.07072 0.19298,0.07072 v 0.197733 0.197733 l -0.78289,1.179122 -0.78289,1.179121 0.23954,0.148046 0.23955,0.148048 -0.33075,0.682918 -0.33075,0.682918 -2.42458,2.645335 -2.42459,2.645333 -1.952,1.364858 -1.95201,1.364857 -0.50853,0.546916 -0.50853,0.546918 -0.70072,0.231257 -0.70072,0.231259 -0.64998,0.740281 -0.64997,0.740281 -0.20484,-0.126598 -0.20484,-0.126598 -0.45629,0.244198 -0.45629,0.244199 0.29279,-0.406019 0.2928,-0.406019 1.35243,-1.73771 1.35244,-1.737707 h 0.0796 0.0796 l -0.0251,0.159112 -0.0251,0.159111 0.0251,0.265186 0.0251,0.265187 h 0.30402 0.30402 l 0.76613,-0.934962 0.76613,-0.934959 0.72901,-0.345941 0.72902,-0.345938 0.94764,-0.999701 0.94765,-0.9997 1.00027,-1.677845 1.00027,-1.677846 0.78363,-0.761866 0.78362,-0.761867 0.43318,-0.850817 0.43318,-0.850815 0.8577,-2.060833 0.85769,-2.060833 2.75824,-4.305279 2.75824,-4.305278 0.14098,-0.367395 0.14099,-0.367395 h -0.20434 -0.20434 l -0.93214,0.708944 -0.93214,0.708947 -0.4696,0.24905 -0.46961,0.24905 -1.67114,2.065127 -1.67114,2.065125 -0.96523,1.411496 -0.96523,1.411497 -0.26416,0.800391 -0.26415,0.800389 -1.42499,2.98576 -1.42499,2.985762 -0.47849,0.424298 -0.4785,0.424297 -0.50354,0.99294 -0.50353,0.992939 -0.41705,0.292117 -0.41706,0.292118 -0.85157,1.260729 -0.85156,1.26073 -0.53832,0.636447 -0.53831,0.636447 0.12853,-0.371261 0.12854,-0.37126 h -0.22261 -0.2226 l -2.39892,2.201314 -2.39892,2.201316 -0.6008,0.639423 -0.60081,0.639423 0.22516,0.139157 0.22516,0.139157 0.44686,-0.239149 0.44685,-0.239147 0.12547,0.125475 0.12548,0.125476 -0.6151,0.642028 -0.6151,0.642028 -0.48322,0.121279 -0.48321,0.121279 v 0.211848 0.211848 l 0.37126,-0.140237 0.37126,-0.140237 -0.34675,0.350638 -0.34675,0.350639 -0.56705,-0.371544 -0.56705,-0.371545 0.13898,0.553732 0.13898,0.553731 -2.38883,2.926057 -2.38883,2.92606 z m 7.9786,-20.973409 0.0893,-0.267997 -0.12817,-0.128174 -0.12817,-0.128172 -0.12732,0.127317 -0.12732,0.127319 0.16616,0.26885 0.16616,0.268852 z m 2.58809,-0.665776 h 0.16959 l 0.12877,-0.335575 0.12877,-0.335573 v -0.207318 -0.207319 l -0.18654,0.115288 -0.18654,0.115288 -0.11182,0.427606 -0.11182,0.427603 z m -2.70317,-0.212149 h 0.2154 l -0.10496,-0.93119 -0.10496,-0.931189 -0.58426,-0.766002 -0.58426,-0.766001 h -0.28052 -0.28052 l -0.13709,0.221818 -0.1371,0.221821 0.89144,1.47537 0.89143,1.475373 z m 7.33922,-0.636447 h 0.1781 l 0.24166,-0.530372 0.24165,-0.530372 h -0.20014 -0.20013 l -0.21962,0.410351 -0.21961,0.410351 v 0.120021 0.120021 z M 58.369245,68.4517 h 0.2256 l -0.26836,-0.323351 -0.26835,-0.323349 -0.0971,0.09709 -0.0971,0.09709 0.13984,0.226263 0.13983,0.226263 z m -5.83817,-7.160025 0.10701,-0.265186 -0.10701,-0.265186 -0.107,-0.265186 v 0.530372 0.530373 z m 25.27575,-1.32593 h 0.17053 l 0.7166,-0.739343 0.7166,-0.739343 -0.14779,-0.147789 -0.14779,-0.147788 -0.73934,0.716599 -0.73934,0.716599 v 0.170533 0.170532 z m -23.29768,-1.060904 h 0.20014 l 0.22019,-0.411423 0.22018,-0.411422 -0.1817,-0.112297 -0.1817,-0.112299 -0.23862,0.523721 -0.23862,0.52372 z m 0.37093,-3.4357 0.26844,-0.222784 v -0.314944 -0.314945 l -0.29732,0.114091 -0.29732,0.114094 -0.11787,-0.450742 -0.11787,-0.45074 -0.43341,0.392227 -0.43341,0.392227 v 0.13013 0.130132 l 0.58016,0.352019 0.58016,0.352018 z m 28.6092,-1.035102 0.29934,-0.248427 v -0.193637 -0.193636 l -0.43024,0.230258 -0.43024,0.230258 0.1309,0.211805 0.1309,0.211807 z m -6.5154,-3.166558 h 0.18617 l 0.2641,-0.318223 0.2641,-0.318223 h -0.1147 -0.1147 l -0.33557,0.128772 -0.33558,0.128772 v 0.189451 0.189451 z m 8.18575,-0.280212 0.2201,-0.07337 v -0.276241 -0.276241 l -0.47733,-0.176578 -0.47734,-0.176578 v 0.268956 0.268958 l 0.25723,0.25723 0.25723,0.257231 z m -4.97755,-2.477723 h 0.21215 v -0.330745 -0.330742 l -0.21215,0.131115 -0.21214,0.131114 v 0.19963 0.199628 z m 32.140565,42.854073 h -0.10607 V 91.257544 91.15147 h 0.10607 0.10608 v 0.106074 0.106075 z m -3.50046,-2.86401 -0.18232,0.424297 V 88.605683 88.28746 l 0.18232,-0.424298 0.18233,-0.424298 v 0.318224 0.318223 z m -2.91704,-9.458501 -0.37126,-0.01788 -0.87062,-0.400923 -0.87061,-0.400923 -1.25088,-0.140623 -1.25087,-0.140623 -0.53037,-0.280679 -0.53038,-0.28068 0.44838,-0.0085 0.44838,-0.0085 1.14274,0.211379 1.14274,0.211377 1.432,0.463759 1.43201,0.463762 v 0.173457 0.173457 z m 1.0077,-3.376506 h -0.28286 l 0.14143,-0.141434 0.14143,-0.141431 0.14144,0.141431 0.14143,0.141434 z m -1.18449,-0.228898 -0.40662,-0.01674 0.27844,-0.111425 0.27845,-0.111424 0.12817,0.128171 0.12817,0.128174 -0.40661,-0.01676 z m 12.95876,-3.801931 h -0.10608 v -0.106074 -0.106075 h 0.10608 0.10607 v 0.106075 0.106074 z m 1.69719,0 h -0.10608 v -0.106074 -0.106075 h 0.10608 0.10607 v 0.106075 0.106074 z m -59.189545,-3.81868 h -0.10608 v -0.106074 -0.106074 h 0.10608 0.10607 v 0.106074 0.106074 z m -4.03083,-2.121488 h -0.10607 V 65.58753 65.481456 h 0.10607 0.10607 v 0.106074 0.106075 z m 0.0125,-3.394382 h -0.0936 l -0.15137,-0.244928 -0.15138,-0.244928 0.24493,0.151374 0.24493,0.151373 v 0.09356 0.09355 z m -0.37154,-0.64471 -0.0653,-0.0083 -0.59326,-0.665602 -0.59326,-0.665604 0.0629,-0.39195 0.0629,-0.391947 0.59565,1.065815 0.59564,1.065815 -0.0653,-0.0083 z m 71.879175,-3.17397 h -0.0801 l -0.29116,-0.371261 -0.29116,-0.37126 0.37126,0.291161 0.37126,0.291164 v 0.0801 0.0801 z m -1.0742,-0.848596 h -0.0936 l -0.15138,-0.244928 -0.15137,-0.244928 0.24493,0.151375 0.24493,0.151372 v 0.09356 0.09355 z m -0.86111,-0.636446 h -0.10608 v -0.106075 -0.106074 h 0.10608 0.10607 v 0.106074 0.106075 z m -0.63645,-0.424298 h -0.10608 v -0.106074 -0.106075 h 0.10608 0.10607 v 0.106075 0.106074 z m -0.63645,-0.424298 h -0.10607 v -0.106074 -0.106075 h 0.10607 0.10608 v 0.106075 0.106074 z m -1.06074,-0.636446 h -0.10608 V 55.404384 55.29831 h 0.10608 0.10607 v 0.106074 0.106075 z m -1.90934,-1.060745 h -0.10608 V 54.34364 54.237565 h 0.10608 0.10607 v 0.106075 0.106074 z M 86.122225,51.903928 h -0.28286 l 0.14143,-0.141434 0.14143,-0.141431 0.14144,0.141431 0.14143,0.141434 z m 31.079825,0 h -0.10608 v -0.106075 -0.106074 h 0.10608 0.10607 v 0.106074 0.106075 z M 116.1413,51.47963 h -0.10607 v -0.106074 -0.106075 h 0.10607 0.10608 v 0.106075 0.106074 z m -1.06074,-0.424298 h -0.10608 v -0.106074 -0.106075 h 0.10608 0.10607 v 0.106075 0.106074 z m -1.06075,-0.424297 h -0.10607 V 50.52496 50.418886 h 0.10607 0.10608 v 0.106074 0.106075 z m -0.63644,-0.212149 h -0.10608 v -0.106075 -0.106074 h 0.10608 0.10607 v 0.106074 0.106075 z m -0.63645,-0.212149 h -0.10608 v -0.106075 -0.106074 h 0.10608 0.10607 v 0.106074 0.106075 z m -0.63645,-0.212149 h -0.10607 v -0.106075 -0.106074 h 0.10607 0.10608 v 0.106074 0.106075 z m -0.74252,-0.212149 h -0.28286 l 0.14143,-0.141433 0.14143,-0.141431 0.14143,0.141431 0.14144,0.141433 z m -0.84859,-0.212149 h -0.28287 l 0.14143,-0.141433 0.14144,-0.141431 0.14143,0.141431 0.14143,0.141433 z m -49.648685,-0.482887 -0.52454,0.365711 0.38609,-0.630897 0.38609,-0.630895 1.20503,-1.119255 1.20503,-1.119252 0.20006,0.535843 0.20007,0.535846 0.54245,0.01345 0.54246,0.01345 -0.52539,0.209641 -0.52538,0.20964 -0.47837,-0.120064 -0.47837,-0.120064 -0.48129,0.742946 -0.48129,0.742945 -0.32405,0.0026 -0.32406,0.0026 -0.52454,0.365709 z m 48.800085,0.270738 h -0.28286 l 0.14143,-0.141433 0.14143,-0.141431 0.14143,0.141431 0.14143,0.141433 z m -1.27289,-0.245645 h -0.53038 l 0.26519,-0.107006 0.26519,-0.107005 0.26518,0.107005 0.26519,0.107006 z m -1.48505,-0.227871 h -0.74252 l 0.37126,-0.09702 0.37126,-0.09702 0.37127,0.09702 0.37126,0.09702 z"
       id="path868" />
  </g>
</svg>
