<?xml version="1.0" encoding="UTF-8" standalone="no"?>
<svg
   xmlns:dc="http://purl.org/dc/elements/1.1/"
   xmlns:cc="http://creativecommons.org/ns#"
   xmlns:rdf="http://www.w3.org/1999/02/22-rdf-syntax-ns#"
   xmlns:svg="http://www.w3.org/2000/svg"
   xmlns="http://www.w3.org/2000/svg"
   xmlns:sodipodi="http://sodipodi.sourceforge.net/DTD/sodipodi-0.dtd"
   xmlns:inkscape="http://www.inkscape.org/namespaces/inkscape"
   width="236.53751mm"
   height="257.96875mm"
   viewBox="0 0 236.53751 257.96875"
   version="1.1"
   id="svg8"
   inkscape:version="1.0.2 (e86c870879, 2021-01-15, custom)"
   sodipodi:docname="Hillibilly_Logo_white_official.svg">
  <defs
     id="defs2" />
  <sodipodi:namedview
     id="base"
     pagecolor="#ffffff"
     bordercolor="#666666"
     borderopacity="1.0"
     inkscape:pageopacity="0.0"
     inkscape:pageshadow="2"
     inkscape:zoom="0.7"
     inkscape:cx="379.03696"
     inkscape:cy="449.42821"
     inkscape:document-units="mm"
     inkscape:current-layer="layer1"
     inkscape:document-rotation="0"
     showgrid="false"
     fit-margin-top="0"
     fit-margin-left="0"
     fit-margin-right="0"
     fit-margin-bottom="0"
     inkscape:pagecheckerboard="true"
     inkscape:window-width="1920"
     inkscape:window-height="986"
     inkscape:window-x="1375"
     inkscape:window-y="1620"
     inkscape:window-maximized="1" />
  <metadata
     id="metadata5">
    <rdf:RDF>
      <cc:Work
         rdf:about="">
        <dc:format>image/svg+xml</dc:format>
        <dc:type
           rdf:resource="http://purl.org/dc/dcmitype/StillImage" />
        <dc:title></dc:title>
      </cc:Work>
    </rdf:RDF>
  </metadata>
  <g
     inkscape:label="Layer 1"
     inkscape:groupmode="layer"
     id="layer1"
     transform="translate(10.923513,-19.938242)">
    <path
       style="fill:#000000;stroke-width:0.264583"
       id="path875"
       d="" />
    <path
       style="fill:#000000;stroke-width:0.264583"
       id="path891"
       d="" />
    <path
       style="fill:#ffffff;stroke:none;stroke-width:0.278467"
       d="M 104.37576,34.105121 C 97.886083,34.978355 91.286924,35.105942 84.845112,36.52679 67.566263,40.337762 51.373431,48.516173 37.531428,59.697637 5.3431034,85.699017 -10.369751,129.78356 -3.386656,170.98767 c 2.3176828,13.67569 7.1940722,26.58547 13.843544,38.61996 4.880296,8.83269 11.09902,17.48243 18.271994,24.51409 20.636743,20.2298 47.373375,32.26457 75.921958,33.5458 8.39763,0.37661 16.72814,-0.64245 25.03224,-1.76186 14.278,-1.92508 29.044,-8.74615 40.98685,-16.73541 11.53712,-7.71779 21.63666,-17.31668 29.98066,-28.57961 C 234.2411,175.24968 228.62067,109.81986 190.74002,69.222672 180.04767,57.76382 166.87714,49.247978 152.78977,42.979424 c -11.83255,-5.265282 -24.81355,-8.145513 -37.6859,-8.723149 -3.5345,-0.158596 -7.18921,-0.627363 -10.72811,-0.151154 m -1.65047,1.934127 c 10.52426,-1.272513 21.96648,0.619752 32.18431,3.092275 38.37882,9.285986 70.23634,39.677073 81.50029,78.577527 4.39054,15.16213 5.46638,31.09892 4.00268,46.79497 -4.89119,52.45634 -48.67037,94.3418 -98.70679,100.55679 C 65.681418,272.01974 11.909638,232.27669 -0.46033226,176.06182 -5.7716228,151.92491 -2.7578247,127.13429 6.4442468,104.45986 11.585099,91.792511 19.758537,79.431308 29.29087,69.811556 43.473697,55.499056 61.373948,44.63388 80.718918,39.555496 87.956536,37.655508 95.342423,36.931876 102.72529,36.039248 M 65.864621,50.335539 v 0.281898 h 0.825239 l -2.200637,1.691385 v 0.281897 c 2.285362,1.149297 5.868273,-0.269212 7.977307,-1.409487 0.41097,2.463501 1.770137,4.21042 4.401274,4.51036 v 1.127589 l 2.475716,-0.563794 -0.825239,0.845692 -0.27508,1.12759 h 2.750797 l -1.100319,2.25518 h 0.27508 4.951432 l -0.825239,3.100872 -1.100317,-0.563794 -4.401275,5.356052 2.200638,-1.691385 -2.475717,1.973282 c -1.164413,2.027689 -3.270696,3.171348 -4.823796,4.872881 -2.309842,2.529748 -3.501487,6.356506 -6.729546,7.812507 l 0.27508,-1.12759 -2.475717,1.12759 v 1.127591 L 66.1397,81.908059 65.589542,83.881341 63.939064,83.317547 62.838746,80.78047 h -0.275079 l -1.925558,2.255179 C 59.960314,80.632191 56.933064,78.331344 54.86144,77.115801 l -0.275079,0.845693 -1.100319,-2.537078 -0.825239,0.281899 C 51.636683,73.4579 51.07332,72.250251 51.835565,69.786467 h -1.650478 l 3.576035,-5.919848 h -1.650477 l 1.100318,-1.973283 h -1.650478 l 5.226512,-5.637949 -4.401273,3.100872 -3.025875,2.25518 c 0.316617,0.818913 -0.695126,2.751602 -0.983685,3.664667 -0.556761,1.763269 -0.578217,3.918376 0.178802,5.637951 1.189444,2.701141 3.589788,4.988176 5.318663,7.329335 1.702468,2.305921 2.687252,4.870907 4.137471,7.329334 1.48653,2.520164 3.504513,4.713891 2.755472,7.893132 -0.737488,3.129345 -4.115739,5.889962 -6.154629,8.175032 -2.392092,2.68084 -4.507729,6.33733 -6.077333,9.58451 1.866415,-1.54705 6.599434,-6.47998 6.051751,-9.02072 l 1.650477,0.5638 -0.27508,-0.8457 2.475717,-2.25518 -1.650478,0.5638 c 1.572079,-2.287042 5.179747,-6.619236 7.977305,-7.047436 2.062547,-3.036604 4.731094,-5.780313 6.488027,-9.020724 3.831308,-7.06548 6.097414,-15.6673 13.867862,-19.450928 -1.949489,4.015912 -4.756125,7.661409 -6.947135,11.557797 -1.149833,2.045166 -1.63975,4.441859 -2.794534,6.472367 -0.637084,1.120542 -1.777289,1.786666 -2.508175,2.841527 -2.605278,3.759667 -4.949781,6.841656 -8.656203,9.57324 l -0.27508,-0.845692 h -0.275079 l -3.300955,4.510356 c 2.129116,-0.164344 4.118216,-2.215709 5.77667,-3.498626 4.333879,-3.35233 8.193521,-6.794858 11.278262,-11.44194 v -0.281897 l 1.375398,-3.664667 h -0.550159 c 2.788483,-6.389208 7.833167,-13.904313 13.478899,-17.982524 3.748784,-2.707907 7.840593,-4.106683 11.82842,-6.260661 l 0.27508,0.845692 5.22651,-1.409488 v -0.281897 c -5.46033,0 -8.97309,1.990478 -14.029055,3.540633 -1.460398,0.447935 -2.965358,0.271185 -4.401273,0.68783 l 0.275079,0.845692 -3.851114,0.281897 0.825239,-1.409487 -0.550158,-0.563795 2.475716,-0.281897 C 89.290122,56.705859 86.803953,55.509486 85.94543,56.819181 l -3.300955,-3.38277 -6.60191,-2.244186 -5.226512,-1.420481 -4.951432,0.563795 m -4.126193,1.409487 -3.576034,3.946566 5.501591,-2.537078 v -0.281897 h -1.375399 l -0.550158,-1.127591 m 20.630968,2.255181 -0.550159,0.845692 v -0.845692 h 0.550159 m 31.083994,0.845692 v 0.281897 h 1.37539 l -1.37539,-0.281897 m 2.20063,0.281897 v 0.281898 h 0.82524 l -0.82524,-0.281898 m 1.83396,0.37577 0.1832,0.09415 -0.1832,-0.09415 m 0.91684,0.188026 0.27508,0.281897 -0.27508,-0.281897 m 1.10032,0.281897 0.27508,0.281898 -0.27508,-0.281898 m 0.82524,0.281898 0.27507,0.281897 -0.27507,-0.281897 m -33.009552,0.281897 0.825238,1.409488 -0.825238,-1.409488 m 33.834792,0 0.27507,0.281897 -0.27507,-0.281897 m -43.187498,0.845693 -0.27508,0.563795 0.27508,-0.563795 m 11.003183,1.127589 0.275079,0.281898 -0.275079,-0.281898 m -2.475716,2.818976 -1.100319,0.845692 1.100319,-0.845692 m -35.485263,1.12759 0.825239,-0.281898 c -0.149093,0.844001 -1.19137,1.908446 -1.696416,0.540398 -0.277555,-0.752385 0.646438,-1.30575 0.871177,-0.2585 m 84.174344,0.563795 0.27509,0.281897 -0.27509,-0.281897 m -83.624185,3.100872 -0.825238,1.409488 0.825238,-1.409488 m 89.400855,1.12759 1.65048,1.691386 -1.65048,-1.691386 m -88.575616,1.12759 1.100318,1.691385 -1.100318,-1.691385 m -3.576034,1.12759 v 1.127591 h -0.27508 l 0.27508,-1.127591 m 95.72769,1.409488 1.92556,1.973282 -1.92556,-1.973282 m 2.7508,3.100873 0.27507,0.281897 -0.27507,-0.281897 m 1.10031,1.409486 0.82524,0.845693 -0.82524,-0.845693 m 1.65048,1.973284 1.10032,1.127589 -1.10032,-1.127589 m -91.051338,0.845692 0.27508,0.281897 -0.27508,-0.281897 m -3.576033,0.281897 0.550159,0.845693 -0.550159,-0.845693 m 96.277851,0.845693 1.10032,1.127589 -1.10032,-1.127589 M 58.437475,84.16324 55.961758,79.934777 c 2.117838,0.342223 2.460036,2.321425 2.475717,4.228463 m 94.627375,-3.38277 4.95143,5.637949 h 0.27507 c -0.98065,-2.154825 -3.34359,-4.278641 -5.2265,-5.637949 m -84.999592,1.127589 -1.100319,1.409488 0.55016,-1.409488 h 0.550159 M 73.01669,110.6616 c 1.423537,-0.59423 3.156262,-1.34521 4.647468,-0.47415 1.371547,0.80116 3.762539,6.77006 3.762539,8.36729 0,1.09996 -0.819736,2.13875 -1.257938,3.10087 -1.506062,-3.18882 -2.116738,-11.18315 -7.700853,-7.82914 -0.705579,0.4237 -1.17569,0.96663 -1.651853,1.6274 l 4.401273,-0.5638 -0.825238,2.81898 c 1.216951,0.16293 1.375397,2.85816 1.375397,3.94656 l 1.100319,-0.84569 h 0.275079 l -1.375398,6.48363 2.200637,-1.97328 h 0.275079 c 0.934995,2.20106 -0.855222,5.13505 -3.239062,3.21956 -1.199071,-0.96325 -0.862649,-2.5819 -1.602889,-3.78336 -1.24996,-2.02909 -3.180469,-3.64408 -4.510753,-5.63794 h -0.275081 c 1.285173,3.47946 2.418776,6.65899 2.943352,10.4302 0.238768,1.71705 -0.468736,3.75404 1.182841,4.79227 l -0.275079,0.84569 0.55016,1.69138 1.925556,0.2819 v -0.2819 h -1.100318 l 0.825239,-2.53707 -1.375398,-1.4095 0.825239,-2.53707 h 0.550159 l 0.275079,1.40949 c 1.029348,-0.49727 1.490656,-0.61764 2.475716,0 h 0.27508 l 1.100318,-0.28191 0.82524,-0.56378 0.550159,2.53707 1.375398,-0.84569 c 1.264266,3.18544 -0.430775,5.22976 -3.025876,7.04743 l 0.275079,-3.10087 h -0.275079 c -0.667894,1.0932 -2.467739,2.691 -2.628661,3.94657 -0.114983,0.89925 0.995788,1.76383 1.253263,0.5638 1.545947,1.60653 0.731162,3.79856 0,5.63794 l -0.825239,-1.40948 -0.825238,3.38277 h -4.676353 v 0.28189 h 3.025875 v 0.2819 l -1.375398,0.2819 v 0.28189 l 3.025876,0.2819 v 0.2819 l -4.126194,0.8457 0.27508,-1.1276 -5.226511,-1.81006 -5.776672,-2.89227 -11.55334,-9.95634 3.979302,-5.35605 1.247209,-3.38277 -0.275079,1.97328 c 1.550073,-0.91955 1.181192,-2.11761 1.650477,-3.66466 l -0.825238,-0.28191 0.825238,-1.12758 c -0.771047,-0.56098 -0.518524,-1.09461 -0.275079,-1.97328 l -1.100319,0.28189 0.275081,-1.69137 -1.367145,2.79388 -2.20889,3.40785 1.100319,-0.2819 -2.200637,2.53708 0.55016,-1.69138 -0.825239,-0.2819 0.825239,-2.25518 -1.100319,0.28189 -0.550159,-2.25517 h -0.27508 c 0.107006,2.55597 0.960578,4.63157 -0.275079,7.04743 v 0.2819 c 0.685498,0.78762 0.360078,1.33479 0,2.25518 1.184217,0.15871 0.825238,1.84108 0.825238,2.81897 -1.192194,-1.36212 -1.843308,-2.66872 -1.925557,-4.51035 h -0.275079 c 0,5.47755 3.881372,6.8377 7.701127,9.79876 1.888971,1.46445 2.843497,3.78447 4.681578,5.27458 3.19945,2.59374 8.084038,4.14389 11.824294,5.78708 l -0.825238,1.12758 1.650477,2.25519 3.851114,-1.97329 v 1.69138 c 1.372372,0.70926 1.355042,1.66743 1.100319,3.10088 l 4.126194,-0.8457 0.275079,1.12759 -1.650477,-0.28189 -0.550161,4.51035 4.401275,-1.12758 c 0.06932,2.93991 2.866054,5.0096 4.700835,7.04743 0.448379,0.49812 2.25345,2.02459 1.097566,2.68395 -0.938571,0.53533 -2.847072,-0.60523 -3.872845,-0.71066 2.115362,2.91961 4.394672,1.97525 7.427149,1.97328 l -1.100319,0.84569 v 0.2819 c 1.890623,0 4.560269,-0.65654 6.330956,-0.20438 2.085104,0.53223 5.651784,3.7873 7.698094,2.45956 l 1.65049,1.40949 -1.3754,-2.25518 -1.65048,0.28189 v -1.12759 c -3.24539,-0.0713 -4.779782,-2.57316 -7.473911,-3.73739 -1.375124,-0.59424 -2.934549,0.10937 -4.35451,-0.46034 -4.517356,-1.8126 -7.208735,-7.01277 -9.077625,-11.30662 h 0.825238 v -0.28191 l -0.825238,-3.66466 c 1.718972,1.51041 2.123064,4.06637 3.517992,5.87192 3.174694,4.11035 8.309603,7.2349 13.261864,8.22296 -1.649105,-2.93061 -6.599437,-4.6516 -9.073503,-7.07282 -4.061274,-3.97531 -5.446575,-11.12085 -5.505717,-16.60657 l 4.676353,1.40948 -0.27508,2.25518 h -0.275079 l -0.27508,-0.84569 h -0.27508 l 0.27508,2.81897 h 0.27508 l 0.550159,-0.56379 -0.550159,0.84569 c 0.431875,1.51943 4.04532,3.23027 5.501591,3.66467 v -1.12759 l 2.750795,0.28189 -0.55016,0.8457 c 2.74832,0.18097 5.40532,1.95017 7.97731,2.87564 4.81032,1.73056 10.22691,1.89576 14.8543,-0.0567 l 0.55016,3.38277 -7.15207,1.97329 -0.27508,1.12758 -1.3754,-1.40949 h -0.27507 l -1.92557,0.28191 0.55016,5.07415 3.30096,2.25518 5.77667,-2.25518 2.47572,-4.79226 h 0.27507 l 0.82524,0.5638 0.27509,-1.69138 0.55015,2.53707 h 0.27508 v -1.40949 c 3.87422,3.97024 3.73421,6.38808 4.2995,11.5578 0.25141,2.30142 1.01779,5.06683 -0.83075,6.93638 -1.24143,1.25529 -3.47947,1.33901 -5.11922,1.53182 -1.34872,0.15843 -2.35909,-0.34561 -3.57604,-0.85696 l 0.27508,1.69138 7.9773,-1.1276 -3.57603,7.04745 c 5.77695,-3.71372 6.7334,-12.87568 5.698,-19.16904 -0.33285,-2.02459 -2.19155,-4.72318 -1.7165,-6.75313 0.49488,-2.11508 3.8624,-1.81795 5.3712,-1.4219 -2.3742,-3.98095 -9.02563,-4.13909 -8.69719,-10.14831 0.058,-1.06387 0.66322,-2.1021 0.99497,-3.10086 l -1.10032,0.28189 0.27508,-0.84569 -1.65048,1.12759 -0.27507,-0.8457 1.10031,-0.84569 c -3.8093,2.21854 -6.73834,1.54453 -10.45302,-0.56379 -0.21126,2.86267 -2.02432,1.4653 -3.85111,1.12759 l -0.82524,1.12759 v -2.25517 h -0.27509 l -0.27507,1.97328 -0.82524,-0.28189 -0.27508,1.12758 -1.92556,-2.25518 c -5.187176,0.94408 -11.130821,1.37256 -15.020995,-3.40814 -1.004041,-1.23357 -1.473601,-3.00446 -2.033939,-4.48499 l 1.650478,1.97328 h 0.27508 l -1.925558,-4.79225 5.226512,4.51036 h 0.275079 l 0.55016,-0.5638 0.550159,1.1276 h 0.275079 v -1.69139 l 1.650478,0.2819 -0.825239,1.40949 c 3.730079,-0.16153 8.443296,2.09646 11.278266,-1.40949 l -1.65048,0.28189 c -1.2629,-2.94244 -4.22467,-4.78295 -5.659489,-7.65914 -0.974881,-1.95413 -1.6469,-5.39046 -1.755556,-7.56332 -0.09876,-1.973 0.714106,-3.9911 -1.387502,-5.07415 l 0.550159,-1.12758 c -1.212,-0.51729 -4.142148,-1.46531 -4.575398,-2.89312 -1.01917,-3.35966 4.835348,-6.24037 7.051114,-6.69141 V 109.534 l -0.825239,-0.5638 4.676351,-0.84569 -0.27508,0.84569 6.32684,0.5638 0.82524,0.28189 c 1.51871,-2.236 3.29215,-3.71682 3.8511,-6.48363 h 0.55017 l 0.27507,0.84569 h 0.27509 v -7.89314 h -0.27509 l -1.65047,0.563798 v 2.537078 h -0.27508 c -0.33422,-1.359597 0.2363,-4.977744 -1.68046,-5.296289 -0.89813,-0.149129 -2.05291,0.459205 -2.9959,0.504028 v 0.281904 h 3.57605 c -0.57823,1.770025 -0.4836,2.542714 0.27507,4.228463 -3.09217,0.515587 -4.24337,-3.183757 -5.94805,-4.83229 -2.02514,-1.958064 -8.133,0.835539 -9.456408,2.577106 h -0.275079 l -0.55016,-0.563798 -1.375397,3.100876 -0.27508,-0.845693 c -1.407582,0.454133 -1.588584,1.716757 -1.650477,3.100877 l -0.825239,-1.1276 h -0.825239 c 0.96608,-2.233191 1.437841,-5.012975 2.60858,-7.047432 2.615731,-4.545034 7.511319,-6.836298 11.970639,-8.738824 v 0.563795 c 4.93521,-1.456283 10.47696,-3.356554 14.57922,0.845693 1.40016,1.434294 2.62206,2.412478 1.92556,4.510359 h -0.27508 l -0.27509,-0.845692 -1.65047,1.127591 0.27508,-1.127591 -1.10032,0.845692 -2.7508,-2.255179 c 0.27949,3.375718 3.73256,5.841198 6.87699,5.074156 v -1.691385 h 0.27509 c 0.98533,2.604168 0.85384,2.896781 -1.65048,3.664664 l 0.55015,0.563799 -2.20063,1.973279 c -1.0134,-2.182734 -3.15406,-5.2447 -5.50159,-5.919848 1.07335,1.65418 3.3832,6.130432 5.50159,6.249388 1.41143,0.07927 2.23255,-1.392295 3.85111,-1.175233 l -0.82524,2.255184 c -4.15508,1.889844 -2.44573,9.529264 0.0905,12.373884 0.86953,0.97537 2.11647,1.60965 3.21045,2.28479 -0.17632,-2.05644 -1.52339,-5.97538 -3.02587,-7.32933 v -0.28191 c 1.2142,-0.5917 3.15737,-1.9589 4.55972,-1.63331 5.56459,1.2925 4.13885,8.38815 0.39172,10.65404 v 0.5638 c 5.03147,1.13548 4.60592,-7.28029 2.80883,-9.86642 -0.61755,-0.88855 -2.08373,-1.91662 -2.08373,-3.09975 0,-1.414 2.20725,-2.56921 3.126,-3.3839 v -0.281894 c -1.01778,-0.856965 -3.60464,-1.776802 -3.64425,-3.354302 -0.0294,-1.163108 1.72861,-1.454026 2.36431,-2.158772 0.75949,-0.841739 0.80736,-2.151718 1.00487,-3.225751 l -0.82524,0.563796 c -0.48579,-1.504769 -2.40557,-1.361001 -3.52927,-2.347925 -4.5721,-4.01422 -8.70957,-6.675332 -14.90106,-6.672796 -8.34537,0.0034 -15.545852,4.943356 -22.281449,9.389446 -4.399622,2.9041 -8.633923,5.791579 -11.829523,10.057258 -2.153322,2.8745 -4.64857,5.34985 -5.50049,9.02494 m 55.382592,-27.719823 0.0919,0.187745 -0.0919,-0.187745 m -66.385775,0.09388 -0.275079,1.127591 h -0.27508 l 0.550159,-1.127591 m -3.576032,1.409488 v 0.845693 l -0.55016,-0.281898 v -0.281882 l 0.55016,-0.281897 m 100.128967,2.25518 c 1.85541,5.224688 4.53331,9.123898 4.67222,14.940569 0.085,3.54768 -0.28471,7.45393 -1.73218,10.71211 -1.22162,2.74935 -3.17139,5.0564 -4.25933,7.89313 -1.41005,3.6779 -1.60866,7.67014 -3.32956,11.27588 -5.22623,10.94919 -15.64735,20.87931 -28.08562,21.14232 v 0.2819 c 12.19647,-0.009 23.07202,-9.10134 28.26195,-20.01473 2.07245,-4.35813 2.33295,-9.23242 4.33278,-13.53106 1.00404,-2.15794 2.72714,-3.96658 3.56282,-6.20175 2.87101,-7.6772 3.01708,-20.405721 -3.42308,-26.498369 m -52.26513,3.664668 v 0.281897 l 7.15208,1.691386 c -1.85597,-1.437679 -4.86699,-1.925079 -7.15208,-1.973283 m 16.22971,0.563795 v 1.127594 h -0.27509 l 0.27509,-1.127594 m -1.10033,0.563795 v 0.281894 h -1.37539 v -0.563792 l 1.37539,0.281898 m -15.40445,4.792261 -0.82524,-0.281904 2.47572,2.537077 -5.22652,-1.691385 v 0.845693 l -7.427147,2.818979 c 0.956726,-1.44078 3.053384,-2.424884 4.676352,-2.818979 L 99.424276,96.28484 101.9,96.566734 101.07475,95.439148 c 1.4714,-1.300678 4.32618,-1.311673 4.95144,0.845692 m -7.152073,0.563788 v 0.563799 h -1.375399 v -0.563799 h 1.375399 m 28.883353,0 c -0.69732,0.986363 -1.41528,0.821166 -2.20064,0 h 2.20064 m 1.3754,1.691385 -0.55016,1.409491 h 1.10032 v 0.281896 l -7.42715,0.84569 c 1.47801,-2.321421 4.35974,-3.151324 6.87699,-2.537077 m -39.886538,7.329337 -0.825238,-0.5638 -0.55016,1.97329 c -0.612602,-0.82849 -2.140118,-5.47135 -2.022659,-6.48251 0.130388,-1.121389 2.115637,-2.910592 3.140033,-1.799925 1.21035,1.312235 0.258024,5.184945 0.258024,6.872945 m 4.951432,-5.63795 c 1.854586,2.21487 3.960871,0.32673 6.326826,0 0.6822,1.07826 1.87274,0.84569 3.02588,0.84569 -1.21035,3.67792 -3.40549,4.62087 -6.60191,3.10088 l 1.100318,1.69138 -6.601909,2.53708 0.275079,-4.22846 h 0.55016 v 1.12758 h 0.275079 l -0.275079,-2.53707 1.375398,-2.53708 h 0.550158 m -11.003129,1.97328 -0.275081,10.43021 h -0.550158 c -1.975346,-3.23082 -3.758138,-4.70769 -1.375398,-8.45692 h 0.275079 v 1.69138 h 0.27508 l 1.100318,-3.66467 h 0.55016 m 2.475715,0.5638 0.27508,4.79226 c -2.338727,-0.86205 -1.542646,-3.22435 -0.27508,-4.79226 m 30.80891,0.28189 -0.27508,1.40949 h 0.27508 v -1.40949 m -36.86066,0.28191 -0.27508,1.97327 h -0.275081 l 0.550161,-1.97327 m 7.152068,0.56378 v 1.97329 h -0.275079 l 0.275079,-1.97329 m 18.980482,4.51037 c 0.31965,-1.84474 0.87806,-2.71017 0,-4.51037 4.79795,0.0445 4.90385,4.49599 0,4.51037 m 0.55017,-2.81898 -0.55017,1.40949 H 105.201 l -0.27508,-0.28189 0.55016,-1.4095 0.82524,0.2819 m -4.1262,0.2819 -0.82524,1.40948 0.27509,-1.40948 h 0.55015 m -4.12619,0.56379 -1.100318,0.84569 1.100318,-0.84569 m 22.55652,0.84569 0.27509,0.28191 -0.27509,-0.28191 m -10.17794,0.5638 -0.82523,0.84569 0.82523,-0.84569 m -61.342741,3.38277 -0.825238,0.5638 -0.27508,1.69139 h 0.27508 l 0.825238,-2.25519 m 43.73765,0 c -0.735288,1.3097 -1.562453,2.66112 -3.025875,3.10088 0.316341,-1.77455 1.38255,-2.60502 3.025875,-3.10088 m -11.278262,0.84569 c 1.207599,1.66292 1.008991,3.72866 0.550159,5.63796 h -0.275079 l -0.27508,-5.63796 m 2.475716,0 c -0.02475,1.22118 -0.02669,2.40741 -1.100319,3.10088 l 0.55016,-3.10088 h 0.550159 m 29.158437,1.12759 c -1.63068,1.20399 -3.25914,4.34912 -1.04832,5.91731 1.14213,0.8099 2.76014,0.56634 4.07419,0.56634 l -0.82523,1.69138 1.92555,-1.12758 0.55016,1.40948 4.94731,-0.20917 4.95584,-4.10725 3.85083,2.06125 c -2.10024,-2.9154 -4.81747,-2.87424 -7.70223,-1.21668 -0.84807,0.4874 -1.70081,1.57666 -2.75079,1.509 -1.75529,-0.11304 -2.58603,-2.7516 -4.1262,-2.77218 -0.97488,-0.0132 -1.4956,1.29729 -2.47874,1.42498 -3.75483,0.48882 -1.67413,-3.79941 -1.37237,-5.14688 m -23.656846,1.69139 0.825239,1.40949 -1.375398,0.28189 0.550159,-1.69138 m 0,2.25518 0.550159,4.79225 -1.100318,-0.28189 -0.825239,3.66466 -0.825238,-0.28189 c -0.590871,1.93804 1.346789,3.32301 0.876678,4.99437 -0.700628,2.49029 -7.778424,-5.07162 -3.627474,-5.27628 v -1.12758 h -0.825239 v -1.12759 l 1.375398,0.28189 1.925556,-4.22845 c 1.522016,0.57338 1.361369,1.65417 1.100319,3.10087 h 0.27508 l 0.550159,-4.51036 h 0.550159 m 19.530646,3.38277 1.65048,-1.69138 -1.65048,1.69138 m 15.12938,-1.40949 -1.10032,1.97329 h -0.55015 l -0.27509,-0.2819 c 0.37191,-1.0853 0.81121,-1.51097 1.92556,-1.69139 m -51.439881,0.5638 1.100319,1.40949 -1.100319,-1.40949 m 32.734471,3.10086 2.20064,-1.69137 v -0.2819 l -7.15207,0.84569 v 0.28189 l 1.92555,1.40949 -1.37539,-0.2819 c 0,3.113 -1.00542,7.18811 0.0726,10.14719 0.57876,1.58934 2.00588,2.04657 3.2165,2.99882 1.05493,0.83019 1.56492,2.27942 2.76676,2.91426 3.31553,1.75142 8.96236,0.44765 12.37445,-0.27401 -0.61783,1.09489 -1.56631,1.30265 -2.75079,1.40949 l 0.55015,2.53708 -0.82524,-0.2819 c 0.37604,0.66557 1.79463,1.80865 0.55016,1.97329 v 0.28189 l 2.20064,0.84569 V 145.335 l -0.55016,-2.53708 h 0.55016 v 1.12759 h 0.27508 l -0.27508,-3.38277 0.55016,0.5638 h 0.27508 l 1.92556,-1.4095 v -0.28189 l -1.65048,-0.2819 v -0.2819 l 2.47571,-0.5638 -0.55016,1.1276 5.5016,2.53708 -1.65048,-3.66468 2.75079,-0.28189 0.27509,-0.84569 3.02586,0.84569 c -1.64772,-2.8435 -3.84918,-4.51769 -3.84891,-8.17503 0,-0.99031 0.0889,-3.00446 1.37651,-3.20489 0.94325,-0.14659 1.43619,1.32323 2.02954,1.83684 0.91243,0.7896 2.31781,1.16508 3.46874,1.36805 -0.71768,-1.0619 -2.04301,-1.59892 -3.02175,-2.4277 -2.77252,-2.34708 -5.3723,-5.46063 -9.35683,-4.33784 v 0.2819 l 1.10032,-0.2819 c -2.24987,1.96512 -4.99516,3.41491 -7.9773,3.66467 l 3.02587,-2.25518 v -0.28189 l -7.42715,1.44895 -8.80254,7.57176 c 0.45442,-3.68243 0.96607,-7.02009 4.12619,-9.30262 l -0.27508,1.1276 c 1.8334,-0.69348 4.50691,-2.91961 5.22652,-4.79225 l -6.32684,2.53706 m 20.90604,-2.25517 v 0.2819 l 3.85112,1.69138 c -1.03622,-1.2846 -2.22511,-1.92395 -3.85112,-1.97328 m -79.956545,0.75182 0.09188,0.18775 -0.09188,-0.18775 m 38.419536,-0.18802 v 0.56379 h -0.55016 v -0.56379 h 0.55016 m -10.453024,0.84568 0.275079,0.2819 -0.275079,-0.2819 m 16.779854,0 0.550158,1.69139 -0.550158,-1.69139 m 22.006369,0 0.27508,0.2819 -0.27508,-0.2819 m -35.485269,0.5638 -0.550159,0.84569 0.550159,-0.84569 m -31.634148,0.28189 v 1.97328 h 0.275079 l -0.275079,-1.97328 m 5.501591,0 -0.550159,1.4095 c 0.82854,-0.18211 0.962229,-0.67289 0.550159,-1.4095 m 36.035422,0 -0.275079,1.12759 h 0.275079 v -1.12759 m 31.909234,0.8457 h 1.92555 c -0.74299,-0.49248 -1.35118,-0.78311 -1.92555,0 m 2.38411,-0.18803 0.18321,0.0942 -0.18321,-0.0942 m -36.952538,0.93985 0.09188,0.18775 -0.09188,-0.18775 m -30.900512,0.0939 -1.100318,1.69138 c -0.394189,-1.04386 0.119385,-1.47206 1.100318,-1.69138 m 0.275079,0.84569 -1.375397,1.97328 1.375397,-1.97328 m 30.350354,0.18803 0.09188,0.18774 -0.09188,-0.18774 m 38.694627,0.0939 c 0.1125,1.61019 -0.37797,2.44067 -1.65048,3.38277 -0.56392,-1.82725 -0.52403,-3.21419 1.65048,-3.38277 m -29.708603,0.2819 c 0.862099,0.67402 1.256288,1.13464 1.100317,2.25517 -0.901436,-0.53926 -1.464248,-1.16874 -1.100317,-2.25517 m 40.161613,0 0.27509,1.69139 h 0.27507 l -0.55016,-1.69139 m -81.423547,1.69139 -0.550159,1.69138 0.825238,-0.2819 c -0.246746,1.73113 -1.395754,2.9602 -2.750795,3.94656 l 1.375398,-3.10087 -0.825238,-0.2819 1.375397,-1.97327 h 0.550159 m 42.637331,0.84569 h 0.550159 c 0.598298,1.10559 1.301952,4.72798 -0.275079,5.07415 l 1.375397,1.12759 -1.650477,1.69138 -1.375397,-4.79226 1.375397,-3.10086 m -1.100318,0.28189 v 1.97328 h -0.55016 v -1.97328 h 0.55016 m -42.362252,0.5638 -0.275079,0.56379 0.275079,-0.56379 m 33.559706,1.40948 c -0.363105,1.50985 -0.231892,4.5425 -2.200637,4.51037 l -1.100317,-5.35606 3.300954,0.84569 m 39.61146,-0.84569 c -1.82185,5.4722 -6.84288,7.41842 -12.1035,7.59912 -2.21769,0.0761 -5.45895,-0.27965 -6.05175,-2.80686 l 2.20064,0.28189 c -0.19586,-2.99064 1.48213,-2.65011 3.85111,-3.10086 l -1.3754,3.38277 5.77667,-0.81779 7.70223,-4.53827 m -51.990042,0.2819 0.275081,3.38277 c -1.544573,-0.55647 -1.112422,-2.30338 -0.275081,-3.38277 m 55.290992,1.69139 c 0.2187,1.73508 1.0112,3.52202 -0.82524,4.51035 l -0.27507,-1.40949 -0.82524,0.28191 0.27507,-1.1276 0.82524,0.28191 0.82524,-2.53708 m -42.087171,0.56379 0.825238,2.53707 h -0.275079 l -0.550159,-2.53707 m 19.255571,3.10087 -1.92556,-1.69138 c 1.11435,0.18041 1.55365,0.60608 1.92556,1.69138 m 27.50796,-1.69138 0.27507,0.28189 -0.27507,-0.28189 m 0.82524,0.5638 0.27507,0.28189 -0.27507,-0.28189 m -8.52747,0.56378 c 0.95425,0.81329 1.30938,1.31928 0.82524,2.53708 l -0.82524,-0.56379 h -0.27508 c -0.73529,0.43046 -0.97983,0.16519 -1.37539,-0.5638 l 1.65047,-1.40949 m -27.507961,0.5638 0.55016,1.97328 c -0.840644,-0.51615 -1.011192,-1.07205 -0.55016,-1.97328 m -7.702226,0.5638 1.375398,2.53708 c -0.980109,-0.52547 -1.609492,-1.37171 -1.375398,-2.53708 m -14.579218,0.56379 v 0.2819 h 1.100318 l -1.100318,-0.2819 m 59.142105,0.84569 0.82524,-0.84569 -0.82524,0.84569 m -51.990035,-0.28189 0.275079,1.97328 -1.375398,-1.12759 1.100319,-0.84569 m 50.889725,0.84569 0.27508,0.28189 -0.27508,-0.28189 m -2.20064,0.28189 -1.10031,3.66468 h 0.27507 c 0.57079,-1.24007 1.47856,-2.29719 0.82524,-3.66468 m -29.98368,3.38277 c -1.512108,-0.49388 -2.810759,-1.37621 -3.576031,-2.81897 1.999829,0.0598 5.128311,-0.3876 3.576031,2.81897 m 31.35908,-3.10086 -0.55016,0.84569 0.55016,-0.84569 m -36.860667,0.56379 1.925556,1.12759 v 0.2819 c -0.846418,-0.13108 -2.18303,-0.29656 -1.925556,-1.40949 m -15.679535,7.61123 c -1.258215,-1.13802 -2.006706,-6.0171 0.110858,-6.86081 1.821576,-0.72561 1.556675,2.59598 1.224929,3.46705 -0.46626,1.22513 -1.153133,2.0415 -1.335787,3.39376 m 47.038612,-5.91985 -1.3754,-1.12759 1.3754,1.12759 m -22.28145,0.84569 c -4.31407,1.60795 -1.6524,-3.29143 0,0 m 4.67636,-1.40948 v 0.2819 l 2.20063,0.28189 -2.20063,-0.56379 m 8.80254,0.56379 0.27508,1.1276 -1.10032,-1.1276 h 0.82524 m -5.77667,0.84569 v 0.28191 l 2.7508,0.56379 -0.27509,-1.40948 -2.47571,0.56378 m -29.708596,-0.28189 0.825239,2.53708 c -1.368521,-0.40791 -1.782516,-1.38722 -0.825239,-2.53708 m 46.488456,0 0.27507,0.28189 -0.27507,-0.28189 m -39.336387,0.5638 c 1.5575,2.99826 3.240437,4.51825 6.601909,4.79225 l -6.601909,-4.79225 m 39.611457,0.84569 -0.82524,1.40948 0.82524,-1.40948 m -9.07762,1.40948 0.27507,0.28191 -0.27507,-0.28191 m -37.135746,1.69139 v 0.84569 l -0.55016,-0.84569 h 0.55016 m 29.983676,0 0.82523,0.84569 -0.82523,-0.84569 m -22.28145,0.84569 1.100319,1.40949 -1.100319,-1.40949 m 7.977308,0 0.27508,0.2819 -0.27508,-0.2819 m 25.582402,0 0.27508,0.2819 -0.27508,-0.2819 m -47.588767,1.1276 v 1.12758 h -0.275081 l 0.275081,-1.12758 m 28.058107,0.56378 v 0.5638 h -0.82523 v -0.5638 h 0.82523 m -10.728095,1.69139 -0.275079,0.2819 0.275079,-0.2819 m 29.983675,0.2819 -1.10032,1.40948 0.27509,-1.40948 h 0.82523 m -44.287812,1.12759 v 0.84569 h -0.275079 l 0.275079,-0.84569 m 24.482082,0.5638 v 0.28189 h -1.65047 l 1.65047,-0.28189 m 18.43033,0.56379 -0.27507,1.12759 h -0.27509 l 0.55016,-1.12759 m -25.857479,1.40949 0.275079,0.28189 -0.275079,-0.28189 m 25.032249,0.28189 -0.82524,1.69139 0.82524,-1.69139 m 2.20063,0 v 0.5638 h -0.55016 v -0.5638 h 0.55016 m -1.3754,3.10088 -1.10031,-0.8457 1.10031,0.8457 m -20.90604,2.25518 c -0.64122,3.55444 4.48407,4.4334 6.87699,5.35605 v -0.28189 l -6.87699,-5.07416 m -27.416362,0.46992 0.09188,0.18774 -0.09188,-0.18774 m 49.972882,0.37577 0.55016,1.40948 c -0.67697,-0.40958 -0.91244,-0.6678 -0.55016,-1.40948 m 12.56206,0.37577 0.1832,0.0942 -0.1832,-0.0942 m -62.626543,0.18802 0.275079,0.28191 -0.275079,-0.28191 m 64.001943,0.0939 0.1832,0.0942 -0.1832,-0.0942 m 1.10032,0.28189 0.1832,0.0942 -0.1832,-0.0942 m 0.91684,0.18803 0.27508,0.28189 -0.27508,-0.28189 m -36.31051,0.84569 0.55016,0.84569 -0.55016,-0.84569 m 3.85112,0 0.82524,1.40949 -0.82524,-1.40949 m -31.634157,0.5638 2.750795,1.97328 -2.750795,-1.97328 m 68.769897,0 0.27508,0.28189 -0.27508,-0.28189 m 0.55016,0.28189 0.27508,0.2819 -0.27508,-0.2819 m 0.55016,0.2819 0.27508,0.2819 -0.27508,-0.2819 m 0.55015,0.2819 0.27509,0.2819 -0.27509,-0.2819 m -32.1843,0.2819 v 0.84569 l -0.55017,-0.84569 h 0.55017 m 8.80255,0.28189 0.27507,0.28191 -0.27507,-0.28191 m -10.17795,0.5638 v 0.28189 l -1.10032,-0.28189 h 1.10032 m 6.32683,0 v 1.12759 h -0.27508 l -0.27508,-1.12759 h 0.55016 m -38.786223,0.28189 v 0.28191 h 1.100319 l -1.100319,-0.28191 m -2.475717,1.1276 v 0.28189 h 1.100319 L 78.2432,166.47739 m 2.200637,0.28189 0.27508,0.2819 -0.27508,-0.2819 m 72.621013,1.12759 0.27507,0.28191 -0.27507,-0.28191 m -53.640523,0.84569 0.275079,0.28191 -0.275079,-0.28191 m -34.660026,2.81899 3.025876,-1.69139 c -1.334686,-0.46767 -2.294438,0.65316 -3.025876,1.69139 m 36.035429,-1.1276 0.27507,0.2819 -0.27507,-0.2819 m -5.776676,0.5638 0.825238,0.28189 v 0.28191 l -0.825238,-0.5638 m 65.744016,4.79226 0.27509,0.28189 -0.27509,-0.28189 m -1.37539,0.28189 v 0.2819 h 0.82524 l -0.82524,-0.2819 m -92.426742,0.2819 v 0.2819 H 78.51828 c -3.022574,-1.29984 -8.264216,-0.2819 -11.553342,-0.2819 m 90.501182,0 v 0.2819 h 1.10032 l -1.10032,-0.2819 m -69.320055,1.1276 v 0.2819 h 1.100318 l -1.100318,-0.2819 m 56.941475,0 v 0.2819 h 1.10032 l -1.10032,-0.2819 m -55.290997,0.2819 v 0.28189 h 0.825238 l -0.825238,-0.28189 m 18.155257,0.84569 c 1.24886,1.54451 5.67022,7.73921 7.70222,4.79226 -1.98139,-0.70531 -5.43309,-7.22503 -7.70222,-4.79226 m 35.48526,-0.84569 v 0.28189 h 0.82524 l -0.82524,-0.28189 m -52.265119,0.28189 v 0.28191 h 0.825238 l -0.825238,-0.28191 m 50.889729,0 v 0.28191 h 0.82524 l -0.82524,-0.28191 m -49.330854,0.37577 0.183203,0.0942 -0.183203,-0.0942 m 48.505614,-0.0939 0.27508,0.28189 -0.27508,-0.28189 m -47.405295,0.37577 0.183202,0.0942 -0.183202,-0.0942 m 46.304975,-0.0939 0.27508,0.28189 -0.27508,-0.28189 m -45.388136,0.28189 v 0.28191 h 0.825239 l -0.825239,-0.28191 m 44.746376,0.0939 0.1832,0.0942 -0.1832,-0.0942 m -43.646058,0.18803 v 0.28189 h 0.825239 l -0.825239,-0.28189 m 42.087188,0.28189 v 0.2819 l 1.10031,-0.2819 h -1.10031 m -40.803391,0.0939 0.183203,0.0942 -0.183203,-0.0942 m 0.825239,0.28189 0.183202,0.0942 -0.183202,-0.0942 m 39.427982,-0.0939 0.27508,0.2819 -0.27508,-0.2819 m -38.786222,0.2819 v 0.28189 h 0.825239 l -0.825239,-0.28189 m 1.100318,0.28189 0.27508,0.2819 -0.27508,-0.2819 m 36.860664,0 0.27508,0.2819 -0.27508,-0.2819 m -22.55653,0.2819 c 2.04522,2.70058 6.80851,5.82768 9.90287,7.04744 -2.34368,-2.91735 -6.67096,-5.28417 -9.90287,-7.04744 m -11.09478,0.65767 0.18321,0.0942 -0.18321,-0.0942 m 32.00084,-0.0939 -1.3754,1.69138 1.3754,-1.69138 m -31.35908,0.28189 0.27508,0.28191 -0.27508,-0.28191 m 14.8543,0 0.27508,0.28191 -0.27508,-0.28191 m -14.02906,0.28191 0.27508,0.28189 -0.27508,-0.28189 m 0.82524,0.28189 0.27508,0.28189 -0.27508,-0.28189 m 0.73363,0.37577 0.1832,0.0942 -0.1832,-0.0942 m 0.64177,0.18803 0.27508,0.28189 -0.27508,-0.28189 m 0.55016,0.28189 0.27508,0.2819 -0.27508,-0.2819 m 25.85747,0.2819 -3.30095,4.22846 h 0.27509 l 3.02586,-4.22846 m -24.48207,0.2819 0.27508,0.2819 -0.27508,-0.2819 m 8.16078,0.0939 0.1832,0.0942 -0.1832,-0.0942 m -6.87698,0.5638 0.1832,0.0942 -0.1832,-0.0942 m 2.29223,0.75181 0.27508,0.28191 -0.27508,-0.28191 m 1.10032,0.5638 0.27508,0.28189 -0.27508,-0.28189 m 0.55016,0.28189 0.27507,0.28191 -0.27507,-0.28191 m 0.55016,0.28191 0.27508,0.28189 -0.27508,-0.28189 m 0.55015,0.28189 0.27509,0.2819 -0.27509,-0.2819 m 1.3754,0.8457 0.27508,0.28189 -0.27508,-0.28189 m 0.55017,0.28189 0.27507,0.2819 -0.27507,-0.2819 m 0.55015,0.2819 0.27509,0.2819 -0.27509,-0.2819 m 11.82843,0 -0.27509,0.8457 0.27509,-0.8457 m -20.08082,3.10087 c 0.23327,0.73012 0.49543,0.92153 1.10555,1.372 1.39851,1.03202 5.35388,6.59217 1.37017,6.52114 v 1.12758 c 1.80342,0 4.50993,0.63371 5.77667,-0.84569 -5.18332,-1.86278 -0.0105,-5.94522 1.3754,-8.17503 l -3.85112,0.28189 v 0.2819 l 0.82524,0.28189 -1.65048,2.81898 -0.82523,-3.38277 -4.1262,-0.2819 m 14.57922,0.2819 4.1262,9.58451 h 0.55016 l 3.02587,-6.20174 c 0.16808,1.96032 1.07611,5.11955 2.47571,6.48364 1.54733,-3.57728 2.3811,-6.77991 5.5016,-9.02071 l -4.1262,-0.28191 v 0.28191 c 1.30333,1.48982 -0.64175,3.72471 -1.10031,5.35604 h -0.55016 c -0.5144,-2.30479 -1.27004,-3.8431 0,-5.91984 h -3.57603 c 0.63955,2.02599 -0.81974,3.84988 -1.65048,5.63795 l -2.20064,-5.07415 1.65048,-0.5638 -4.1262,-0.2819 m -21.73128,0.2819 v 0.5638 c 2.22621,2.17765 1.05328,5.69038 -0.27509,7.89312 2.74392,-2.7e-4 6.56203,0.56774 7.15208,-2.81897 -0.91299,0.56323 -2.13572,1.66686 -3.27511,1.54169 -3.61537,-0.39691 -0.0963,-6.2305 1.07447,-7.17964 h -4.67635 m -7.977314,0.28189 c 0.817261,3.36586 0.944073,5.40821 0,8.73883 2.819565,-0.48402 6.173614,0.33151 6.876994,-3.10088 -0.906667,0.55929 -2.366789,1.88026 -3.513322,1.49181 -2.190733,-0.74252 -0.974607,-6.13973 1.037601,-6.56596 -0.832666,-1.31111 -3.02285,-0.56464 -4.401273,-0.5638 m -5.226512,0.28191 c 1.717322,2.73807 2.164876,5.67121 0.825239,8.73881 l 3.576034,-0.56379 v -0.2819 c -2.142595,-1.36861 -2.034213,-6.17243 -0.825239,-8.17503 l -3.576034,0.28191 m 51.164806,-0.28191 c 0.98011,2.96952 1.78004,6.03121 -0.55016,8.73883 h 3.85111 v -0.2819 c -1.52861,-1.2784 -1.63424,-6.93157 0.55017,-7.61124 l -3.85112,-0.84569 m -59.142113,1.1276 v 0.28189 c 3.105648,1.77653 2.041365,3.92797 2.475717,7.04744 l -1.650478,1.12759 c 1.721448,-0.0401 3.973524,0.18324 5.471607,-0.84822 1.575381,-1.08475 1.336337,-3.12681 -0.245096,-3.94404 2.143971,-4.39534 -3.072088,-4.95321 -6.05175,-3.66466 m 64.093543,0 v 0.28189 c 1.44719,2.0618 0.29406,4.41762 0.27508,6.76554 l -1.37539,0.2819 v 0.56379 c 2.52109,0.8099 6.46793,1.37651 7.42714,-1.69138 l -4.40128,0.84569 0.82524,-6.20174 1.92557,-0.2819 v -0.56379 c -1.56989,-0.60242 -3.16178,-0.82822 -4.67636,0 m 27.23288,4.22846 c 1.1556,-0.2382 2.38962,-0.90179 2.97525,-2.02149 0.30397,-0.58071 0.31057,-2.19344 -0.74628,-1.82754 -0.74602,0.25822 -1.71815,3.0786 -2.22897,3.84903 M 73.291768,193.5395 c 1.016144,2.19683 2.951603,6.18342 0.27508,7.89313 v 0.5638 l 0.275079,0.28189 c 2.778304,-0.53052 6.08146,0.005 6.87699,-3.38277 l -4.401274,1.40949 0.0074,-5.55367 1.64305,-1.77567 -4.676353,0.5638 m 79.77309,-0.5638 c 0.62113,2.56499 1.28159,6.20119 -1.37541,7.89313 v 0.5638 c 2.7112,0.93871 6.29961,1.45656 7.42715,-1.69139 l -4.40127,0.84569 c 0,-2.84462 -0.0374,-5.63372 3.02588,-6.48364 v -0.56379 l -4.67635,-0.5638 m -68.191139,0.57423 c 1.377599,-0.17196 1.634523,2.28309 0.246471,2.50973 -1.292598,0.21086 -1.444442,-2.36032 -0.246471,-2.50973 m 75.068119,0.27146 c 0.57684,1.1431 6.63273,8.05862 1.65048,7.89313 l -0.27508,1.1276 c 1.66781,0.3769 4.48903,1.33196 5.77667,0 -2.99919,-2.0074 -0.82991,-7.06858 2.47572,-7.32934 v -0.5638 l -3.57603,-0.28189 c 0.41261,1.45769 -0.24318,2.24306 -1.3754,3.10087 l -0.27508,-3.38277 -4.40128,-0.5638 m -94.627377,0.8457 v 0.5638 c 1.948389,1.7813 2.12719,5.81582 0.27508,7.61123 2.955179,0.51249 6.393949,0.24383 7.152068,-3.10088 -1.044752,0.47415 -2.093355,1.58653 -3.288851,1.58934 -2.139294,0.005 -1.387501,-4.68993 -1.387501,-6.09969 l 1.650477,-1.1276 -0.27508,-0.2819 -4.126193,0.8457 m -5.226511,0.5638 v 0.56378 c 2.383289,0.7414 2.371185,6.31057 1.375397,8.17503 l 3.576035,-1.40949 c -1.750607,-0.94886 -2.572545,-6.21696 -1.100319,-7.61123 l -3.851113,0.28191 m -4.676351,0.84569 c 0.364755,0.4468 0.778199,0.88543 1.016694,1.42217 1.687887,3.79997 -7.197457,2.95936 -3.217331,-0.57648 v -0.2819 c -1.200402,-0.36223 -3.44285,-0.30219 -3.851068,1.12759 h 1.100319 c 0.180727,2.6972 1.246385,5.04624 0.275079,7.61124 l 3.576033,-0.28191 c -0.434625,-0.43553 -0.941322,-0.84343 -1.172388,-1.43936 -1.120949,-2.89256 3.789495,-3.99872 4.174607,-1.37735 0.130113,0.88713 -0.259124,1.71562 -0.526502,2.53482 l 3.300954,-0.5638 c -1.643324,-2.72426 -2.931247,-5.48121 -1.100319,-8.45693 l -3.576033,0.28191 m 119.659614,6.20174 c -2.0884,-0.16294 -2.23557,2.068 -0.5342,3.01236 2.69358,1.4949 7.74184,-0.87755 5.5555,-4.41086 -0.90914,-1.46896 -2.61105,-2.07786 -3.37082,-3.67566 0.59994,0.0437 1.07115,0.16407 1.64745,0.3318 0.80626,0.23425 2.04384,-0.36732 0.97186,-1.17072 -1.3611,-1.02019 -4.06183,0.10004 -3.85525,1.96651 0.21099,1.90733 4.37598,3.15726 2.72329,5.29884 -1.37429,1.78074 -3.00662,0.42397 -3.13783,-1.35227 m -90.138901,-5.18043 c 1.659555,-0.74562 2.344778,1.88054 0.72731,2.51199 -1.419686,0.55421 -1.841933,-2.01134 -0.72731,-2.51199 M 174.246,239.77068 c -4.65793,0.003 -9.24296,1.61331 -14.02906,1.3985 -6.60906,-0.29655 -11.58553,-3.40307 -17.05494,-6.86392 -3.05394,-1.93269 -6.88662,-4.4661 -9.00005,-7.50186 -1.20457,-1.73 2.0045,-4.15742 2.55246,-5.91984 1.62985,-5.24245 1.24997,-11.32665 -3.18046,-14.84191 -1.12893,-0.89558 -2.35083,-1.96736 -3.85085,-2.03022 -7.73166,-0.32391 -10.90223,12.11116 -7.54763,17.71782 1.65212,2.76063 3.98811,3.37431 6.11474,5.44852 3.33892,3.25647 6.7356,6.91268 10.5892,9.60227 5.87817,4.1033 13.2811,6.29139 20.2772,6.98514 4.32618,0.42905 12.88171,0.83921 15.12939,-3.9945 M 87.045747,204.93489 c -0.933619,0.12714 -3.519092,0.0952 -3.519092,1.55777 0,1.28601 3.603267,2.5227 4.25273,3.96066 0.58592,1.29673 0.04401,3.14823 -0.10398,4.51008 -0.303963,2.79107 0.0077,6.00808 -0.717132,8.72275 -0.494044,1.85037 -3.344417,0.73548 -3.603543,2.53934 -0.167798,1.16734 1.538795,1.30941 2.31562,1.35451 2.843498,0.16464 5.967026,0.33602 8.802546,0.02 4.342956,-0.48373 7.443934,-4.57491 5.735964,-8.97025 -0.441508,-1.13661 -2.376142,-1.91747 -2.378068,-3.10764 -0.003,-1.8625 2.067773,-3.0025 1.839732,-5.3507 -0.528978,-5.4488 -8.663906,-5.77579 -12.624777,-5.23653 m 18.980493,0 c -0.93362,0.12714 -3.5191,0.0952 -3.5191,1.55777 0,1.46305 3.73284,2.55314 4.33086,4.24284 0.44288,1.25021 -0.0424,2.94301 -0.1821,4.2279 -0.30314,2.78542 0.007,6.0171 -0.71714,8.72247 -0.48717,1.81824 -3.34167,0.71602 -3.60354,2.53962 -0.1678,1.16734 1.5388,1.30941 2.31562,1.35451 2.83938,0.16435 5.97226,0.34561 8.80255,0.02 4.48187,-0.51586 6.96474,-4.58844 5.55661,-8.97025 -0.38154,-1.18679 -2.1734,-1.92734 -2.20284,-3.10764 -0.0495,-1.99753 2.19156,-3.17388 1.81387,-5.63259 -0.7969,-5.1903 -8.71644,-5.48263 -12.59479,-4.95464 m 23.10669,2.53427 c 1.76353,-0.33828 2.83551,1.60935 3.49983,2.98416 1.48763,3.07889 1.31764,6.4766 0.12791,9.58452 -0.44948,1.17466 -1.1435,2.98755 -2.53816,3.22998 -1.8202,0.31601 -3.12683,-2.14355 -3.76831,-3.51188 -1.51734,-3.23675 -2.15415,-11.36047 2.67873,-12.28678 m -36.299508,1.1975 c 3.472054,-0.34167 3.984527,6.91071 -0.0097,7.00797 -2.826443,0.069 -2.647367,-6.74638 0.0097,-7.00797 m 18.980218,0.0468 c 3.60739,-0.1697 3.75071,6.6711 -0.009,6.94314 -2.77776,0.20099 -2.71751,-6.81487 0.009,-6.94314 m -19.262175,8.91359 c 5.240816,-1.38017 5.197078,6.10844 0.546033,7.25718 -3.496261,0.86373 -3.266019,-6.54058 -0.546033,-7.25718 m 18.980495,0 c 5.05046,-1.32801 5.25924,6.11803 0.54603,7.21799 -3.51277,0.81976 -3.29683,-6.49463 -0.54603,-7.21799 z"
       id="path907" />
  </g>
</svg>
